<svg width="15" height="13" viewBox="0 0 15 13" fill="none" xmlns="http://www.w3.org/2000/svg">
<path d="M9.83329 12.5V1.83333C9.83329 1.47971 9.69289 1.14057 9.44279 0.89052C9.19279 0.64047 8.85362 0.5 8.5 0.5H5.83333C5.47971 0.5 5.14057 0.64047 4.89052 0.89052C4.64047 1.14057 4.5 1.47971 4.5 1.83333V12.5M1.83333 3.16666H12.5C13.2364 3.16666 13.8333 3.76362 13.8333 4.5V11.1667C13.8333 11.903 13.2364 12.5 12.5 12.5H1.83333C1.09695 12.5 0.5 11.903 0.5 11.1667V4.5C0.5 3.76362 1.09695 3.16666 1.83333 3.16666Z" stroke="black" stroke-linecap="round" stroke-linejoin="round"/>
</svg>
