<svg width="32" height="32" viewBox="0 0 32 32" fill="none" xmlns="http://www.w3.org/2000/svg">
<path d="M14.0314 19.9121L13.4569 21.2966M14.0314 11.5961L13.4569 10.2116M17.4754 19.9121L18.0484 21.2981M18.0499 10.2116L17.4754 11.5961M19.9114 14.0321L21.2959 13.4576M19.9114 17.4761L21.2959 18.0506M24.1504 7.50406C24.4955 6.9063 24.6985 6.23714 24.7437 5.54835C24.7889 4.85957 24.675 4.16963 24.4109 3.5319C24.1467 2.89418 23.7394 2.32576 23.2205 1.87063C22.7015 1.4155 22.0848 1.08586 21.4181 0.907203C20.7513 0.728548 20.0524 0.70567 19.3754 0.840339C18.6984 0.975008 18.0615 1.26361 17.5139 1.68383C16.9662 2.10405 16.5226 2.64461 16.2174 3.2637C15.9121 3.88278 15.7533 4.5638 15.7534 5.25406C15.7543 4.25475 15.4225 3.28357 14.8104 2.49366C14.1983 1.70375 13.3407 1.14006 12.3728 0.891464C11.4049 0.642871 10.3818 0.723525 9.4648 1.12071C8.54782 1.51789 7.78912 2.209 7.30836 3.08506C6.91261 3.80541 6.7217 4.62039 6.75636 5.44156M6.75636 5.44156C5.87458 5.66839 5.05599 6.09291 4.36259 6.68298C3.6692 7.27306 3.11919 8.01319 2.75423 8.84733C2.38926 9.68146 2.21892 10.5877 2.25611 11.4974C2.2933 12.4072 2.53703 13.2965 2.96886 14.0981M6.75636 5.44156C6.78693 6.16742 6.9928 6.87508 7.35636 7.50406M24.7504 5.44156C25.6321 5.66839 26.4507 6.09291 27.1441 6.68298C27.8375 7.27306 28.3875 8.01319 28.7525 8.84733C29.1174 9.68146 29.2878 10.5877 29.2506 11.4974C29.2134 12.4072 28.9697 13.2965 28.5379 14.0981M27.0109 13.1951C28.2996 13.7185 29.3665 14.6735 30.029 15.8966C30.6914 17.1198 30.9083 18.5351 30.6426 19.9005C30.3768 21.2659 29.6448 22.4965 28.572 23.3819C27.4991 24.2672 26.1519 24.7523 24.7609 24.7541M3.80136 23.9786C3.62078 25.3551 3.92318 26.7517 4.65703 27.9303C5.39088 29.1089 6.51074 29.9965 7.82575 30.4419C9.14075 30.8872 10.5695 30.8628 11.8685 30.3726C13.1675 29.8825 14.2563 28.9571 14.9494 27.7541C15.2194 27.2876 16.2874 27.2876 16.5574 27.7541C17.2504 28.9568 18.3391 29.8821 19.6379 30.3722C20.9366 30.8622 22.3652 30.8868 23.68 30.4417C24.9949 29.9965 26.1147 29.1093 26.8487 27.931C27.5827 26.7528 27.8855 25.3565 27.7054 23.9801M4.50336 13.1906C3.21169 13.7122 2.14176 14.6669 1.47709 15.8911C0.812412 17.1153 0.594407 18.5327 0.860465 19.9C1.12652 21.2674 1.86006 22.4996 2.93527 23.3852C4.01048 24.2709 5.36035 24.7548 6.75336 24.7541M11.5954 14.0321L10.2109 13.4576M11.5954 17.4761L10.2109 18.0506M20.2534 15.7541C20.2534 18.2393 18.2386 20.2541 15.7534 20.2541C13.2681 20.2541 11.2534 18.2393 11.2534 15.7541C11.2534 13.2688 13.2681 11.2541 15.7534 11.2541C18.2386 11.2541 20.2534 13.2688 20.2534 15.7541Z" stroke="#1D54DD" stroke-width="1.5" stroke-linecap="round" stroke-linejoin="round"/>
</svg>
