<svg width="32" height="32" viewBox="0 0 32 32" fill="none" xmlns="http://www.w3.org/2000/svg">
<path d="M15.75 17.4175C16.6709 17.4175 17.4175 16.6709 17.4175 15.75C17.4175 14.8291 16.6709 14.0825 15.75 14.0825C14.8291 14.0825 14.0825 14.8291 14.0825 15.75C14.0825 16.6709 14.8291 17.4175 15.75 17.4175Z" stroke="#1D54DD" stroke-width="1.5" stroke-linecap="round" stroke-linejoin="round"/>
<path d="M29.4235 29.4235C32.8252 26.0385 29.4569 17.1507 21.9198 9.58024C14.3493 2.04313 5.46151 -1.32522 2.07648 2.07648C-1.32522 5.46151 2.04313 14.3493 9.58024 21.9198C17.1507 29.4569 26.0385 32.8252 29.4235 29.4235Z" stroke="#1D54DD" stroke-width="1.5" stroke-linecap="round" stroke-linejoin="round"/>
<path d="M21.9198 21.9198C29.4569 14.3493 32.8252 5.46151 29.4235 2.07648C26.0385 -1.32522 17.1507 2.04313 9.58024 9.58024C2.04313 17.1507 -1.32522 26.0385 2.07648 29.4235C5.46151 32.8252 14.3493 29.4569 21.9198 21.9198Z" stroke="#1D54DD" stroke-width="1.5" stroke-linecap="round" stroke-linejoin="round"/>
</svg>
