<svg width="33" height="32" viewBox="0 0 33 32" fill="none" xmlns="http://www.w3.org/2000/svg">
<path d="M20.125 11.6433V7.41667C20.125 5.64856 20.9415 3.95286 22.3949 2.70262C23.8483 1.45238 25.8196 0.75 27.875 0.75H30.7812C31.0382 0.75 31.2846 0.837798 31.4663 0.994078C31.6479 1.15036 31.75 1.36232 31.75 1.58333V4.08333C31.75 5.85144 30.9335 7.54714 29.4801 8.79738C28.0267 10.0476 26.0554 10.75 24 10.75C21.9446 10.75 19.9733 11.4524 18.5199 12.7026C17.0665 13.9529 16.25 15.6486 16.25 17.4167M16.25 17.4167C16.25 20.75 18.1875 22.4167 18.1875 25.75C18.1875 27.5531 17.5077 29.3075 16.25 30.75M16.25 17.4167C16.25 15.8691 15.749 14.352 14.8032 13.0356C13.8573 11.7191 12.504 10.6552 10.8949 9.96311C9.28573 9.271 7.48432 8.97802 5.69251 9.11701C3.90069 9.25599 2.18927 9.82144 0.75 10.75C0.75 12.2976 1.25099 13.8146 2.19682 15.1311C3.14266 16.4476 4.49597 17.5115 6.10512 18.2036C7.71427 18.8957 9.51568 19.1886 11.3075 19.0497C13.0993 18.9107 14.8107 18.3452 16.25 17.4167ZM2.6875 30.75H29.8125" stroke="#1D54DD" stroke-width="1.5" stroke-linecap="round" stroke-linejoin="round"/>
</svg>
