<svg width="189" height="43" viewBox="0 0 189 43" fill="none" xmlns="http://www.w3.org/2000/svg">
<path d="M39.2207 27.6203L38.6008 27.8607L38.3326 27.9644L37.8822 28.139L37.8873 28.1542C36.5969 28.726 35.4406 29.5635 34.4918 30.6085L29.1228 32.6934C27.5566 32.5466 25.9777 32.7617 24.5077 33.3335L9.3418 39.2237C10.4475 39.9803 11.619 40.6331 12.8436 41.172L25.6235 36.2103C27.0935 35.641 28.4042 34.7327 29.4593 33.5663L34.8308 31.4814C36.2376 31.613 37.6545 31.4485 38.993 31.0007L38.9981 31.0158L39.4484 30.8413L39.7166 30.7375L40.3365 30.4972C40.625 30.3858 40.9058 30.2568 41.1816 30.1176C41.6294 29.098 41.9938 28.0403 42.2772 26.96C41.2322 27.0207 40.2024 27.2408 39.2182 27.6229L39.2207 27.6203Z" fill="#1D54DD"/>
<path d="M41.5309 13.7169C41.3866 13.3475 41.2323 12.9857 41.0729 12.6289C40.4555 12.7428 39.8458 12.9123 39.2562 13.14L38.6363 13.3804L38.3681 13.4841L37.9178 13.6587L37.9228 13.6739C36.6324 14.2457 35.4761 15.0832 34.5273 16.1281L19.6676 21.8995C18.1014 21.7527 16.5226 21.9678 15.0525 22.5396L1.01001 27.9896C1.14664 28.4198 1.29339 28.8499 1.45785 29.275C1.66786 29.8164 1.90316 30.3402 2.15112 30.8538L16.1683 25.4114C17.6384 24.8421 18.949 23.9338 20.0041 22.7699L34.8638 16.9985C36.2706 17.1301 37.6875 16.9682 39.026 16.5178L39.031 16.533L39.4814 16.3584L39.7496 16.2547L40.3695 16.0143C40.9514 15.7891 41.5056 15.5083 42.0318 15.1819C41.88 14.691 41.7181 14.2027 41.5283 13.7169H41.5309Z" fill="#1D54DD"/>
<path d="M35.8732 36.1544L18.7161 42.8164C22.1774 43.2718 25.7955 42.8898 29.2796 41.5361C32.6371 40.2331 35.476 38.176 37.6899 35.6357C37.0725 35.7496 36.4653 35.9242 35.8758 36.1519L35.8732 36.1544Z" fill="#1D54DD"/>
<path d="M24.1459 0.165598C20.7251 -0.262003 17.1525 0.127645 13.7139 1.46105C9.99458 2.90578 6.90776 5.27403 4.61035 8.19892L21.6258 1.59262C22.5342 1.24092 23.3792 0.75513 24.1459 0.165598Z" fill="#1D54DD"/>
<path d="M30.7091 2.08554C30.2841 2.18928 29.8666 2.31831 29.4567 2.47772L28.8368 2.71808L28.5686 2.82182L28.1182 2.9964L28.1233 3.01158C26.8329 3.58341 25.6766 4.4209 24.7278 5.46586L19.1437 7.63423C17.5775 7.48747 15.9987 7.70254 14.5286 8.27436L1.63989 13.2765C1.13638 14.491 0.744207 15.7485 0.470947 17.0389L15.6444 11.1461C17.1145 10.5768 18.4251 9.66849 19.4802 8.50208L25.0643 6.33371C26.4711 6.46528 27.888 6.30082 29.2265 5.85298L29.2315 5.86816L29.6819 5.69358L29.9501 5.58984L30.57 5.34947C31.62 4.94211 32.5891 4.35764 33.4417 3.63401C32.5688 3.04954 31.6529 2.53338 30.7066 2.08301L30.7091 2.08554Z" fill="#1D54DD"/>
<path d="M38.9373 8.93031C38.4161 8.20667 37.8519 7.52606 37.2522 6.88086C36.6298 6.99472 36.015 7.16424 35.4178 7.39702L34.798 7.63738L34.5298 7.74112L34.0794 7.9157L34.0844 7.93088C32.794 8.50271 31.6378 9.34019 30.6889 10.3852L18.1418 15.2583C16.5756 15.1115 14.9968 15.3266 13.5267 15.8984L0.00290245 21.1485C-0.0148088 22.2213 0.0484457 23.3017 0.195196 24.3821L14.6425 18.7727C16.1126 18.2034 17.4232 17.2951 18.4783 16.1287L31.0255 11.2555C32.4322 11.3871 33.8491 11.2227 35.1876 10.7748L35.1927 10.79L35.643 10.6154L35.9112 10.5117L36.5311 10.2713C37.3939 9.93732 38.1985 9.48189 38.9323 8.93031H38.9373Z" fill="#1D54DD"/>
<path d="M42.8794 19.3467C41.9989 19.4403 41.131 19.6452 40.3011 19.9691L39.6812 20.2095L39.413 20.3132L38.9627 20.4878L38.9677 20.503C37.6773 21.0748 36.521 21.9123 35.5722 22.9572L23.2427 27.7444C21.6765 27.5976 20.0976 27.8127 18.6276 28.3845L4.03857 34.0496C4.67871 34.9402 5.3821 35.7726 6.13862 36.5418L19.7434 31.2588C21.2134 30.6895 22.5241 29.7811 23.5792 28.6173L35.9087 23.8302C37.3155 23.9617 38.7324 23.7973 40.0709 23.3494L40.0759 23.3646L40.5263 23.19L40.7945 23.0863L41.4144 22.8459C41.9609 22.6334 42.4847 22.3753 42.9831 22.0742C43.0084 21.1709 42.9705 20.2601 42.8769 19.3492L42.8794 19.3467Z" fill="#1D54DD"/>
<path d="M186.852 14.9337C186.956 14.8805 187.034 14.8046 187.085 14.7085C187.135 14.6123 187.161 14.5035 187.161 14.3796C187.161 14.2556 187.135 14.1443 187.085 14.0481C187.034 13.952 186.956 13.8735 186.852 13.8179C186.746 13.7622 186.612 13.7344 186.447 13.7344H185.736V15.8344H185.992V15.0146H186.452C186.47 15.0146 186.485 15.0096 186.503 15.0096L186.948 15.8344H187.244L186.766 14.9615C186.794 14.9514 186.827 14.9438 186.852 14.9312V14.9337ZM185.989 13.9596H186.437C186.551 13.9596 186.642 13.9773 186.71 14.0127C186.779 14.0481 186.829 14.0962 186.862 14.1594C186.895 14.2227 186.91 14.2961 186.91 14.3796C186.91 14.4631 186.895 14.5364 186.865 14.5972C186.834 14.6579 186.784 14.7034 186.715 14.7363C186.647 14.7692 186.556 14.7844 186.445 14.7844H185.994V13.9596H185.989Z" fill="white"/>
<path d="M188.302 14.1621C188.236 13.9647 188.142 13.7851 188.021 13.6206C187.899 13.4561 187.758 13.3145 187.593 13.193C187.429 13.0716 187.247 12.9779 187.049 12.9122C186.852 12.8464 186.644 12.8135 186.427 12.8135C186.209 12.8135 186.002 12.8464 185.804 12.9122C185.607 12.9779 185.425 13.0716 185.263 13.193C185.098 13.3145 184.957 13.4561 184.835 13.6206C184.714 13.7851 184.62 13.9672 184.554 14.1621C184.489 14.3594 184.456 14.5669 184.456 14.7845C184.456 15.0021 184.489 15.2096 184.554 15.4069C184.62 15.6043 184.714 15.7839 184.835 15.9484C184.957 16.1128 185.098 16.2545 185.263 16.376C185.427 16.4974 185.607 16.591 185.804 16.6568C186.002 16.7226 186.209 16.7555 186.427 16.7555C186.644 16.7555 186.852 16.7226 187.049 16.6568C187.247 16.591 187.429 16.4974 187.593 16.376C187.758 16.2545 187.899 16.1128 188.021 15.9484C188.142 15.7839 188.236 15.6017 188.302 15.4069C188.367 15.2096 188.4 15.0021 188.4 14.7845C188.4 14.5669 188.367 14.3594 188.302 14.1621ZM188.076 15.3335C188.018 15.5081 187.935 15.665 187.829 15.8117C187.722 15.956 187.596 16.0825 187.452 16.1887C187.307 16.295 187.148 16.3785 186.976 16.4367C186.801 16.4949 186.619 16.5253 186.427 16.5253C186.235 16.5253 186.052 16.4949 185.878 16.4367C185.703 16.3785 185.546 16.295 185.4 16.1887C185.255 16.0825 185.129 15.956 185.023 15.8117C184.916 15.6675 184.833 15.5081 184.775 15.3335C184.716 15.159 184.689 14.9768 184.689 14.787C184.689 14.5973 184.716 14.4126 184.775 14.238C184.833 14.0634 184.914 13.9065 185.023 13.7598C185.129 13.6155 185.255 13.489 185.4 13.3828C185.544 13.2765 185.703 13.193 185.878 13.1348C186.05 13.0766 186.235 13.0488 186.427 13.0488C186.619 13.0488 186.801 13.0791 186.976 13.1348C187.15 13.193 187.307 13.274 187.452 13.3828C187.596 13.489 187.722 13.6155 187.829 13.7598C187.935 13.904 188.018 14.0634 188.076 14.238C188.135 14.4126 188.163 14.5947 188.163 14.787C188.163 14.9793 188.132 15.1615 188.076 15.3335Z" fill="white"/>
<path d="M66.4683 14.9623C65.77 14.1704 64.935 13.5555 63.966 13.1178C62.9969 12.6801 61.9064 12.46 60.6995 12.46C59.3863 12.46 58.1972 12.7459 57.1345 13.3202C56.0718 13.8946 55.2217 14.765 54.5866 15.9314C54.3715 16.3261 54.1919 16.7562 54.0401 17.2142V12.9938H50.6016V36.226H54.9484V27.7144C55.5531 28.605 56.3097 29.2806 57.2155 29.7386C58.268 30.2699 59.4294 30.5356 60.702 30.5356C61.9747 30.5356 63.0045 30.3104 63.9862 29.8625C64.9654 29.4147 65.8054 28.7898 66.5037 27.9877C67.2021 27.1856 67.7334 26.257 68.0978 25.2045C68.4621 24.1519 68.6443 23.0108 68.6443 21.7811V21.1258C68.6443 19.9164 68.457 18.7854 68.0826 17.7329C67.7081 16.6803 67.1692 15.7568 66.4734 14.9648L66.4683 14.9623ZM63.7028 24.2633C63.3056 25.0881 62.7591 25.7282 62.0608 26.1862C61.3624 26.6442 60.5452 26.8744 59.6065 26.8744C58.7943 26.8744 58.0226 26.6872 57.2914 26.3127C56.5627 25.9382 55.9681 25.4069 55.5101 24.7187C55.0521 24.0305 54.8219 23.198 54.8219 22.2163V20.9664C54.8219 19.9442 55.0446 19.0688 55.4949 18.3401C55.9428 17.6114 56.5272 17.0573 57.2458 16.6828C57.9644 16.3084 58.7513 16.1211 59.6065 16.1211C60.5452 16.1211 61.3624 16.3463 62.0608 16.7942C62.7591 17.242 63.3056 17.8619 63.7028 18.6538C64.0975 19.4458 64.2974 20.3845 64.2974 21.4674C64.2974 22.5503 64.1001 23.4435 63.7028 24.2658V24.2633Z" fill="white"/>
<path d="M87.4183 15.038C86.6162 14.2157 85.6395 13.568 84.4959 13.0999C83.3497 12.6318 82.0568 12.3965 80.6197 12.3965C79.1825 12.3965 77.8896 12.6318 76.7434 13.0999C75.5972 13.568 74.6231 14.2157 73.8211 15.038C73.019 15.8628 72.4042 16.799 71.9766 17.8516C71.549 18.9041 71.3364 20.0149 71.3364 21.1813V21.8391C71.3364 22.9651 71.5388 24.048 71.9462 25.0904C72.3536 26.1328 72.9507 27.0665 73.7452 27.8888C74.5371 28.7136 75.5062 29.3639 76.6523 29.8421C77.7985 30.3203 79.1218 30.5607 80.6247 30.5607C82.1276 30.5607 83.418 30.3203 84.5642 29.8421C85.7104 29.3639 86.6794 28.7111 87.4714 27.8888C88.2633 27.0665 88.863 26.1328 89.2704 25.0904C89.6777 24.048 89.8801 22.9651 89.8801 21.8391V21.1813C89.8801 20.0149 89.6701 18.9041 89.2552 17.8516C88.8377 16.799 88.2279 15.8603 87.4258 15.038H87.4183ZM84.964 24.2327C84.5895 25.0347 84.0354 25.6723 83.3067 26.1404C82.578 26.6085 81.6798 26.8438 80.6171 26.8438C79.5545 26.8438 78.6562 26.6085 77.9275 26.1404C77.1989 25.6723 76.6397 25.0347 76.2551 24.2327C75.868 23.4306 75.6757 22.5172 75.6757 21.4975C75.6757 20.4779 75.873 19.5341 76.2703 18.7295C76.665 17.9275 77.2343 17.2924 77.9756 16.8218C78.7144 16.3537 79.5949 16.1184 80.6171 16.1184C81.6393 16.1184 82.5198 16.3537 83.2586 16.8218C83.9975 17.2899 84.5617 17.9275 84.9463 18.7295C85.3309 19.5316 85.5257 20.4551 85.5257 21.4975C85.5257 22.54 85.3384 23.4306 84.964 24.2327Z" fill="white"/>
<path d="M105.555 21.3408C104.419 20.4451 102.85 19.891 100.849 19.6835L99.3481 19.5267C98.4297 19.4229 97.7693 19.2256 97.3619 18.9321C96.9546 18.6411 96.7522 18.2236 96.7522 17.6822C96.7522 17.1407 97.0027 16.66 97.5036 16.3057C98.0046 15.9515 98.7131 15.7744 99.629 15.7744C100.651 15.7744 101.43 15.9819 101.974 16.3994C102.516 16.8168 102.807 17.3178 102.85 17.8998H106.759C106.696 16.1286 106.018 14.7826 104.727 13.8667C103.434 12.9507 101.747 12.4902 99.6619 12.4902C98.3285 12.4902 97.1443 12.6926 96.112 13.1C95.0797 13.5074 94.2726 14.107 93.6881 14.899C93.1036 15.6909 92.8127 16.6701 92.8127 17.839C92.8127 19.299 93.3238 20.4654 94.346 21.3408C95.3682 22.2163 96.8255 22.7577 98.7232 22.9677L100.224 23.1246C101.35 23.2283 102.147 23.4484 102.615 23.7799C103.083 24.1139 103.318 24.5617 103.318 25.1234C103.318 25.7686 103.009 26.2797 102.394 26.6567C101.78 27.0312 100.95 27.2184 99.9098 27.2184C98.6599 27.2184 97.7415 26.9781 97.157 26.4998C96.5725 26.0216 96.2512 25.4878 96.1879 24.9058H92.2788C92.3421 26.6567 93.0328 28.0281 94.3586 29.0174C95.6819 30.0067 97.5112 30.5026 99.8466 30.5026C101.347 30.5026 102.65 30.2723 103.756 29.8144C104.861 29.3564 105.719 28.7163 106.336 27.8914C106.951 27.0691 107.26 26.0925 107.26 24.9691C107.26 23.4484 106.691 22.239 105.557 21.3408H105.555Z" fill="white"/>
<path d="M109.289 12.9912V16.2425H111.667V29.9687H116.012V16.2425V12.9912H111.667H109.289Z" fill="white"/>
<path d="M113.261 10.9592C114.117 10.9592 114.742 10.7365 115.139 10.2862C115.533 9.83833 115.733 9.26904 115.733 8.58083C115.733 7.89262 115.536 7.33092 115.139 6.8932C114.742 6.45548 114.117 6.23535 113.261 6.23535C112.406 6.23535 111.776 6.45548 111.369 6.8932C110.961 7.33092 110.759 7.89262 110.759 8.58083C110.759 9.26904 110.961 9.8358 111.369 10.2862C111.776 10.734 112.406 10.9592 113.261 10.9592Z" fill="white"/>
<path d="M119.109 7.14355V10.3948H121.234V29.9683H125.581V10.3948V7.14355H121.234H119.109Z" fill="white"/>
<path d="M142.574 13.6009C141.334 12.7988 139.796 12.3965 137.961 12.3965C136.564 12.3965 135.335 12.6419 134.272 13.1302C133.209 13.6211 132.319 14.2764 131.598 15.1012C130.879 15.9261 130.335 16.8623 129.971 17.9148C129.606 18.9674 129.424 20.0579 129.424 21.1813V21.7759C129.424 22.8613 129.606 23.924 129.971 24.9664C130.335 26.0089 130.877 26.9526 131.598 27.7952C132.316 28.6402 133.225 29.3107 134.318 29.8117C135.413 30.3127 136.688 30.5632 138.148 30.5632C139.608 30.5632 140.79 30.3228 141.885 29.8446C142.981 29.3664 143.882 28.6883 144.59 27.8129C145.299 26.9374 145.779 25.9152 146.027 24.7488H142.025C141.837 25.3738 141.41 25.9001 140.742 26.3277C140.074 26.7553 139.211 26.9678 138.146 26.9678C137.081 26.9678 136.208 26.7325 135.52 26.2644C134.831 25.7963 134.32 25.1486 133.986 24.3263C133.766 23.7798 133.619 23.1801 133.543 22.5273H146.306V20.9637C146.306 19.4633 145.992 18.0616 145.367 16.7585C144.742 15.4555 143.808 14.4029 142.569 13.6009H142.574ZM135.525 16.6497C136.193 16.212 137.005 15.9919 137.964 15.9919C138.923 15.9919 139.72 16.1993 140.355 16.6168C140.99 17.0343 141.465 17.6289 141.777 18.3981C141.954 18.8358 142.08 19.3292 142.156 19.8681H133.624C133.71 19.3874 133.837 18.9421 134.006 18.5398C134.351 17.7175 134.857 17.0849 135.522 16.6472L135.525 16.6497Z" fill="white"/>
<path d="M159.382 12.46H159.194C157.838 12.46 156.71 12.7509 155.801 13.3354C154.896 13.9199 154.212 14.7903 153.754 15.9466C153.603 16.3261 153.481 16.741 153.38 17.1838V12.9938H149.941V29.9713H154.288V19.9974C154.288 18.8917 154.617 18.0112 155.272 17.3559C155.93 16.698 156.788 16.3716 157.853 16.3716C158.918 16.3716 159.713 16.6955 160.308 17.3407C160.902 17.9859 161.198 18.831 161.198 19.8734V29.9739H165.545V20.2504C165.545 17.6671 165.024 15.7214 163.981 14.4183C162.939 13.1153 161.406 12.465 159.384 12.465L159.382 12.46Z" fill="white"/>
<path d="M182.019 16.4297V12.9912H169.075V16.3361H177.594L169.105 26.5302V29.9687H182.363V26.6238H173.53L182.019 16.4297Z" fill="white"/>
</svg>
