<svg width="1439" height="750" viewBox="0 0 1439 750" fill="none" xmlns="http://www.w3.org/2000/svg">
<g clip-path="url(#clip0_772_2292)">
<path d="M0 6.89258H179.764" stroke="#F4F6F8" stroke-width="0.510562" stroke-miterlimit="10"/>
<path d="M0 21.3262H179.764" stroke="#F4F6F8" stroke-width="0.770948" stroke-miterlimit="10"/>
<path d="M0 35.7649H179.764" stroke="#F4F6F8" stroke-width="1.03133" stroke-miterlimit="10"/>
<path d="M0 50.1984H179.764" stroke="#F4F6F8" stroke-width="1.29172" stroke-miterlimit="10"/>
<path d="M0 64.6371H179.764" stroke="#F4F6F8" stroke-width="1.55211" stroke-miterlimit="10"/>
<path d="M0 79.0707H179.764" stroke="#F4F6F8" stroke-width="1.81249" stroke-miterlimit="10"/>
<path d="M0 93.5043H179.764" stroke="#F4F6F8" stroke-width="2.07288" stroke-miterlimit="10"/>
<path d="M0 107.943H179.764" stroke="#F4F6F8" stroke-width="2.33327" stroke-miterlimit="10"/>
<path d="M0 122.377H179.764" stroke="#F4F6F8" stroke-width="2.59365" stroke-miterlimit="10"/>
<path d="M0 136.815H179.764" stroke="#F4F6F8" stroke-width="2.85404" stroke-miterlimit="10"/>
<path d="M0 151.249H179.764" stroke="#F4F6F8" stroke-width="3.11443" stroke-miterlimit="10"/>
<path d="M0 165.682H179.764" stroke="#F4F6F8" stroke-width="3.37481" stroke-miterlimit="10"/>
<path d="M0 180.121H179.764" stroke="#F4F6F8" stroke-width="3.6352" stroke-miterlimit="10"/>
<path d="M0 194.555H179.764" stroke="#F4F6F8" stroke-width="3.89559" stroke-miterlimit="10"/>
<path d="M0 208.993H179.764" stroke="#F4F6F8" stroke-width="4.15597" stroke-miterlimit="10"/>
<path d="M0 223.427H179.764" stroke="#F4F6F8" stroke-width="4.41636" stroke-miterlimit="10"/>
<path d="M0 237.861H179.764" stroke="#F4F6F8" stroke-width="4.67675" stroke-miterlimit="10"/>
<path d="M0 252.299H179.764" stroke="#F4F6F8" stroke-width="4.93713" stroke-miterlimit="10"/>
<path d="M0 266.733H179.764" stroke="#F4F6F8" stroke-width="5.19752" stroke-miterlimit="10"/>
<path d="M0 281.172H179.764" stroke="#F4F6F8" stroke-width="5.45791" stroke-miterlimit="10"/>
<path d="M0 295.605H179.764" stroke="#F4F6F8" stroke-width="5.71829" stroke-miterlimit="10"/>
<path d="M0 310.039H179.764" stroke="#F4F6F8" stroke-width="5.97868" stroke-miterlimit="10"/>
<path d="M0 324.477H179.764" stroke="#F4F6F8" stroke-width="6.23907" stroke-miterlimit="10"/>
<path d="M0 338.911H179.764" stroke="#F4F6F8" stroke-width="6.49945" stroke-miterlimit="10"/>
<path d="M0 353.35H179.764" stroke="#F4F6F8" stroke-width="6.75984" stroke-miterlimit="10"/>
<path d="M0 367.783H179.764" stroke="#F4F6F8" stroke-width="7.02023" stroke-miterlimit="10"/>
<path d="M0 382.217H179.764" stroke="#F4F6F8" stroke-width="7.27551" stroke-miterlimit="10"/>
<path d="M0 396.655H179.764" stroke="#F4F6F8" stroke-width="7.53589" stroke-miterlimit="10"/>
<path d="M0 411.089H179.764" stroke="#F4F6F8" stroke-width="7.79628" stroke-miterlimit="10"/>
<path d="M0 425.528H179.764" stroke="#F4F6F8" stroke-width="8.05667" stroke-miterlimit="10"/>
<path d="M0 439.961H179.764" stroke="#F4F6F8" stroke-width="8.31705" stroke-miterlimit="10"/>
<path d="M0 454.395H179.764" stroke="#F4F6F8" stroke-width="8.57744" stroke-miterlimit="10"/>
<path d="M0 468.834H179.764" stroke="#F4F6F8" stroke-width="8.83782" stroke-miterlimit="10"/>
<path d="M0 483.267H179.764" stroke="#F4F6F8" stroke-width="9.09821" stroke-miterlimit="10"/>
<path d="M0 497.706H179.764" stroke="#F4F6F8" stroke-width="9.3586" stroke-miterlimit="10"/>
<path d="M0 512.14H179.764" stroke="#F4F6F8" stroke-width="9.61899" stroke-miterlimit="10"/>
<path d="M0 526.573H179.764" stroke="#F4F6F8" stroke-width="9.87937" stroke-miterlimit="10"/>
<path d="M0 541.012H179.764" stroke="#F4F6F8" stroke-width="10.1398" stroke-miterlimit="10"/>
<path d="M0 555.445H179.764" stroke="#F4F6F8" stroke-width="10.4001" stroke-miterlimit="10"/>
<path d="M0 569.884H179.764" stroke="#F4F6F8" stroke-width="10.6605" stroke-miterlimit="10"/>
<path d="M0 584.318H179.764" stroke="#F4F6F8" stroke-width="10.9209" stroke-miterlimit="10"/>
<path d="M0 598.751H179.764" stroke="#F4F6F8" stroke-width="11.1813" stroke-miterlimit="10"/>
<path d="M0 613.19H179.764" stroke="#F4F6F8" stroke-width="11.4417" stroke-miterlimit="10"/>
<path d="M0 627.623H179.764" stroke="#F4F6F8" stroke-width="11.7021" stroke-miterlimit="10"/>
<path d="M0 642.062H179.764" stroke="#F4F6F8" stroke-width="11.9625" stroke-miterlimit="10"/>
<path d="M0 656.496H179.764" stroke="#F4F6F8" stroke-width="12.2229" stroke-miterlimit="10"/>
<path d="M0 670.929H179.764" stroke="#F4F6F8" stroke-width="12.4832" stroke-miterlimit="10"/>
<path d="M0 685.368H179.764" stroke="#F4F6F8" stroke-width="12.7436" stroke-miterlimit="10"/>
<path d="M0 699.802H179.764" stroke="#F4F6F8" stroke-width="13.004" stroke-miterlimit="10"/>
<path d="M0 714.24H179.764" stroke="#F4F6F8" stroke-width="13.2644" stroke-miterlimit="10"/>
<path d="M0 728.674H179.764" stroke="#F4F6F8" stroke-width="13.5248" stroke-miterlimit="10"/>
<path d="M0 743.107H179.764" stroke="#F4F6F8" stroke-width="13.7852" stroke-miterlimit="10"/>
<path d="M359.533 743.107H179.764" stroke="#F4F6F8" stroke-width="0.510562" stroke-miterlimit="10"/>
<path d="M359.533 728.674H179.764" stroke="#F4F6F8" stroke-width="0.770948" stroke-miterlimit="10"/>
<path d="M359.533 714.24H179.764" stroke="#F4F6F8" stroke-width="1.03133" stroke-miterlimit="10"/>
<path d="M359.533 699.802H179.764" stroke="#F4F6F8" stroke-width="1.29172" stroke-miterlimit="10"/>
<path d="M359.533 685.368H179.764" stroke="#F4F6F8" stroke-width="1.55211" stroke-miterlimit="10"/>
<path d="M359.533 670.929H179.764" stroke="#F4F6F8" stroke-width="1.81249" stroke-miterlimit="10"/>
<path d="M359.533 656.496H179.764" stroke="#F4F6F8" stroke-width="2.07288" stroke-miterlimit="10"/>
<path d="M359.533 642.062H179.764" stroke="#F4F6F8" stroke-width="2.33327" stroke-miterlimit="10"/>
<path d="M359.533 627.623H179.764" stroke="#F4F6F8" stroke-width="2.59365" stroke-miterlimit="10"/>
<path d="M359.533 613.19H179.764" stroke="#F4F6F8" stroke-width="2.85404" stroke-miterlimit="10"/>
<path d="M359.533 598.751H179.764" stroke="#F4F6F8" stroke-width="3.11443" stroke-miterlimit="10"/>
<path d="M359.533 584.318H179.764" stroke="#F4F6F8" stroke-width="3.37481" stroke-miterlimit="10"/>
<path d="M359.533 569.884H179.764" stroke="#F4F6F8" stroke-width="3.6352" stroke-miterlimit="10"/>
<path d="M359.533 555.445H179.764" stroke="#F4F6F8" stroke-width="3.89559" stroke-miterlimit="10"/>
<path d="M359.533 541.012H179.764" stroke="#F4F6F8" stroke-width="4.15597" stroke-miterlimit="10"/>
<path d="M359.533 526.573H179.764" stroke="#F4F6F8" stroke-width="4.41636" stroke-miterlimit="10"/>
<path d="M359.533 512.14H179.764" stroke="#F4F6F8" stroke-width="4.67675" stroke-miterlimit="10"/>
<path d="M359.533 497.706H179.764" stroke="#F4F6F8" stroke-width="4.93713" stroke-miterlimit="10"/>
<path d="M359.533 483.267H179.764" stroke="#F4F6F8" stroke-width="5.19752" stroke-miterlimit="10"/>
<path d="M359.533 468.834H179.764" stroke="#F4F6F8" stroke-width="5.45791" stroke-miterlimit="10"/>
<path d="M359.533 454.395H179.764" stroke="#F4F6F8" stroke-width="5.71829" stroke-miterlimit="10"/>
<path d="M359.533 439.961H179.764" stroke="#F4F6F8" stroke-width="5.97868" stroke-miterlimit="10"/>
<path d="M359.533 425.528H179.764" stroke="#F4F6F8" stroke-width="6.23907" stroke-miterlimit="10"/>
<path d="M359.533 411.089H179.764" stroke="#F4F6F8" stroke-width="6.49945" stroke-miterlimit="10"/>
<path d="M359.533 396.655H179.764" stroke="#F4F6F8" stroke-width="6.75984" stroke-miterlimit="10"/>
<path d="M359.533 382.217H179.764" stroke="#F4F6F8" stroke-width="7.02023" stroke-miterlimit="10"/>
<path d="M359.533 367.783H179.764" stroke="#F4F6F8" stroke-width="7.27551" stroke-miterlimit="10"/>
<path d="M359.533 353.35H179.764" stroke="#F4F6F8" stroke-width="7.53589" stroke-miterlimit="10"/>
<path d="M359.533 338.911H179.764" stroke="#F4F6F8" stroke-width="7.79628" stroke-miterlimit="10"/>
<path d="M359.533 324.477H179.764" stroke="#F4F6F8" stroke-width="8.05667" stroke-miterlimit="10"/>
<path d="M359.533 310.039H179.764" stroke="#F4F6F8" stroke-width="8.31705" stroke-miterlimit="10"/>
<path d="M359.533 295.605H179.764" stroke="#F4F6F8" stroke-width="8.57744" stroke-miterlimit="10"/>
<path d="M359.533 281.172H179.764" stroke="#F4F6F8" stroke-width="8.83782" stroke-miterlimit="10"/>
<path d="M359.533 266.733H179.764" stroke="#F4F6F8" stroke-width="9.09821" stroke-miterlimit="10"/>
<path d="M359.533 252.299H179.764" stroke="#F4F6F8" stroke-width="9.3586" stroke-miterlimit="10"/>
<path d="M359.533 237.861H179.764" stroke="#F4F6F8" stroke-width="9.61899" stroke-miterlimit="10"/>
<path d="M359.533 223.427H179.764" stroke="#F4F6F8" stroke-width="9.87937" stroke-miterlimit="10"/>
<path d="M359.533 208.993H179.764" stroke="#F4F6F8" stroke-width="10.1398" stroke-miterlimit="10"/>
<path d="M359.533 194.555H179.764" stroke="#F4F6F8" stroke-width="10.4001" stroke-miterlimit="10"/>
<path d="M359.533 180.121H179.764" stroke="#F4F6F8" stroke-width="10.6605" stroke-miterlimit="10"/>
<path d="M359.533 165.682H179.764" stroke="#F4F6F8" stroke-width="10.9209" stroke-miterlimit="10"/>
<path d="M359.533 151.249H179.764" stroke="#F4F6F8" stroke-width="11.1813" stroke-miterlimit="10"/>
<path d="M359.533 136.815H179.764" stroke="#F4F6F8" stroke-width="11.4417" stroke-miterlimit="10"/>
<path d="M359.533 122.377H179.764" stroke="#F4F6F8" stroke-width="11.7021" stroke-miterlimit="10"/>
<path d="M359.533 107.943H179.764" stroke="#F4F6F8" stroke-width="11.9625" stroke-miterlimit="10"/>
<path d="M359.533 93.5043H179.764" stroke="#F4F6F8" stroke-width="12.2229" stroke-miterlimit="10"/>
<path d="M359.533 79.0707H179.764" stroke="#F4F6F8" stroke-width="12.4832" stroke-miterlimit="10"/>
<path d="M359.533 64.6371H179.764" stroke="#F4F6F8" stroke-width="12.7436" stroke-miterlimit="10"/>
<path d="M359.533 50.1984H179.764" stroke="#F4F6F8" stroke-width="13.004" stroke-miterlimit="10"/>
<path d="M359.533 35.7649H179.764" stroke="#F4F6F8" stroke-width="13.2644" stroke-miterlimit="10"/>
<path d="M359.533 21.3262H179.764" stroke="#F4F6F8" stroke-width="13.5248" stroke-miterlimit="10"/>
<path d="M359.533 6.89258H179.764" stroke="#F4F6F8" stroke-width="13.7852" stroke-miterlimit="10"/>
<path d="M359.533 6.89258H539.296" stroke="#F4F6F8" stroke-width="0.510562" stroke-miterlimit="10"/>
<path d="M359.533 21.3262H539.296" stroke="#F4F6F8" stroke-width="0.770948" stroke-miterlimit="10"/>
<path d="M359.533 35.7649H539.296" stroke="#F4F6F8" stroke-width="1.03133" stroke-miterlimit="10"/>
<path d="M359.533 50.1984H539.296" stroke="#F4F6F8" stroke-width="1.29172" stroke-miterlimit="10"/>
<path d="M359.533 64.6371H539.296" stroke="#F4F6F8" stroke-width="1.55211" stroke-miterlimit="10"/>
<path d="M359.533 79.0707H539.296" stroke="#F4F6F8" stroke-width="1.81249" stroke-miterlimit="10"/>
<path d="M359.533 93.5043H539.296" stroke="#F4F6F8" stroke-width="2.07288" stroke-miterlimit="10"/>
<path d="M359.533 107.943H539.296" stroke="#F4F6F8" stroke-width="2.33327" stroke-miterlimit="10"/>
<path d="M359.533 122.377H539.296" stroke="#F4F6F8" stroke-width="2.59365" stroke-miterlimit="10"/>
<path d="M359.533 136.815H539.296" stroke="#F4F6F8" stroke-width="2.85404" stroke-miterlimit="10"/>
<path d="M359.533 151.249H539.296" stroke="#F4F6F8" stroke-width="3.11443" stroke-miterlimit="10"/>
<path d="M359.533 165.682H539.296" stroke="#F4F6F8" stroke-width="3.37481" stroke-miterlimit="10"/>
<path d="M359.533 180.121H539.296" stroke="#F4F6F8" stroke-width="3.6352" stroke-miterlimit="10"/>
<path d="M359.533 194.555H539.296" stroke="#F4F6F8" stroke-width="3.89559" stroke-miterlimit="10"/>
<path d="M359.533 208.993H539.296" stroke="#F4F6F8" stroke-width="4.15597" stroke-miterlimit="10"/>
<path d="M359.533 223.427H539.296" stroke="#F4F6F8" stroke-width="4.41636" stroke-miterlimit="10"/>
<path d="M359.533 237.861H539.296" stroke="#F4F6F8" stroke-width="4.67675" stroke-miterlimit="10"/>
<path d="M359.533 252.299H539.296" stroke="#F4F6F8" stroke-width="4.93713" stroke-miterlimit="10"/>
<path d="M359.533 266.733H539.296" stroke="#F4F6F8" stroke-width="5.19752" stroke-miterlimit="10"/>
<path d="M359.533 281.172H539.296" stroke="#F4F6F8" stroke-width="5.45791" stroke-miterlimit="10"/>
<path d="M359.533 295.605H539.296" stroke="#F4F6F8" stroke-width="5.71829" stroke-miterlimit="10"/>
<path d="M359.533 310.039H539.296" stroke="#F4F6F8" stroke-width="5.97868" stroke-miterlimit="10"/>
<path d="M359.533 324.477H539.296" stroke="#F4F6F8" stroke-width="6.23907" stroke-miterlimit="10"/>
<path d="M359.533 338.911H539.296" stroke="#F4F6F8" stroke-width="6.49945" stroke-miterlimit="10"/>
<path d="M359.533 353.35H539.296" stroke="#F4F6F8" stroke-width="6.75984" stroke-miterlimit="10"/>
<path d="M359.533 367.783H539.296" stroke="#F4F6F8" stroke-width="7.02023" stroke-miterlimit="10"/>
<path d="M359.533 382.217H539.296" stroke="#F4F6F8" stroke-width="7.27551" stroke-miterlimit="10"/>
<path d="M359.533 396.655H539.296" stroke="#F4F6F8" stroke-width="7.53589" stroke-miterlimit="10"/>
<path d="M359.533 411.089H539.296" stroke="#F4F6F8" stroke-width="7.79628" stroke-miterlimit="10"/>
<path d="M359.533 425.528H539.296" stroke="#F4F6F8" stroke-width="8.05667" stroke-miterlimit="10"/>
<path d="M359.533 439.961H539.296" stroke="#F4F6F8" stroke-width="8.31705" stroke-miterlimit="10"/>
<path d="M359.533 454.395H539.296" stroke="#F4F6F8" stroke-width="8.57744" stroke-miterlimit="10"/>
<path d="M359.533 468.834H539.296" stroke="#F4F6F8" stroke-width="8.83782" stroke-miterlimit="10"/>
<path d="M359.533 483.267H539.296" stroke="#F4F6F8" stroke-width="9.09821" stroke-miterlimit="10"/>
<path d="M359.533 497.706H539.296" stroke="#F4F6F8" stroke-width="9.3586" stroke-miterlimit="10"/>
<path d="M359.533 512.14H539.296" stroke="#F4F6F8" stroke-width="9.61899" stroke-miterlimit="10"/>
<path d="M359.533 526.573H539.296" stroke="#F4F6F8" stroke-width="9.87937" stroke-miterlimit="10"/>
<path d="M359.533 541.012H539.296" stroke="#F4F6F8" stroke-width="10.1398" stroke-miterlimit="10"/>
<path d="M359.533 555.445H539.296" stroke="#F4F6F8" stroke-width="10.4001" stroke-miterlimit="10"/>
<path d="M359.533 569.884H539.296" stroke="#F4F6F8" stroke-width="10.6605" stroke-miterlimit="10"/>
<path d="M359.533 584.318H539.296" stroke="#F4F6F8" stroke-width="10.9209" stroke-miterlimit="10"/>
<path d="M359.533 598.751H539.296" stroke="#F4F6F8" stroke-width="11.1813" stroke-miterlimit="10"/>
<path d="M359.533 613.19H539.296" stroke="#F4F6F8" stroke-width="11.4417" stroke-miterlimit="10"/>
<path d="M359.533 627.623H539.296" stroke="#F4F6F8" stroke-width="11.7021" stroke-miterlimit="10"/>
<path d="M359.533 642.062H539.296" stroke="#F4F6F8" stroke-width="11.9625" stroke-miterlimit="10"/>
<path d="M359.533 656.496H539.296" stroke="#F4F6F8" stroke-width="12.2229" stroke-miterlimit="10"/>
<path d="M359.533 670.929H539.296" stroke="#F4F6F8" stroke-width="12.4832" stroke-miterlimit="10"/>
<path d="M359.533 685.368H539.296" stroke="#F4F6F8" stroke-width="12.7436" stroke-miterlimit="10"/>
<path d="M359.533 699.802H539.296" stroke="#F4F6F8" stroke-width="13.004" stroke-miterlimit="10"/>
<path d="M359.533 714.24H539.296" stroke="#F4F6F8" stroke-width="13.2644" stroke-miterlimit="10"/>
<path d="M359.533 728.674H539.296" stroke="#F4F6F8" stroke-width="13.5248" stroke-miterlimit="10"/>
<path d="M359.533 743.107H539.296" stroke="#F4F6F8" stroke-width="13.7852" stroke-miterlimit="10"/>
<path d="M719.06 743.107H539.296" stroke="#F4F6F8" stroke-width="0.510562" stroke-miterlimit="10"/>
<path d="M719.06 728.674H539.296" stroke="#F4F6F8" stroke-width="0.770948" stroke-miterlimit="10"/>
<path d="M719.06 714.24H539.296" stroke="#F4F6F8" stroke-width="1.03133" stroke-miterlimit="10"/>
<path d="M719.06 699.802H539.296" stroke="#F4F6F8" stroke-width="1.29172" stroke-miterlimit="10"/>
<path d="M719.06 685.368H539.296" stroke="#F4F6F8" stroke-width="1.55211" stroke-miterlimit="10"/>
<path d="M719.06 670.929H539.296" stroke="#F4F6F8" stroke-width="1.81249" stroke-miterlimit="10"/>
<path d="M719.06 656.496H539.296" stroke="#F4F6F8" stroke-width="2.07288" stroke-miterlimit="10"/>
<path d="M719.06 642.062H539.296" stroke="#F4F6F8" stroke-width="2.33327" stroke-miterlimit="10"/>
<path d="M719.06 627.623H539.296" stroke="#F4F6F8" stroke-width="2.59365" stroke-miterlimit="10"/>
<path d="M719.06 613.19H539.296" stroke="#F4F6F8" stroke-width="2.85404" stroke-miterlimit="10"/>
<path d="M719.06 598.751H539.296" stroke="#F4F6F8" stroke-width="3.11443" stroke-miterlimit="10"/>
<path d="M719.06 584.318H539.296" stroke="#F4F6F8" stroke-width="3.37481" stroke-miterlimit="10"/>
<path d="M719.06 569.884H539.296" stroke="#F4F6F8" stroke-width="3.6352" stroke-miterlimit="10"/>
<path d="M719.06 555.445H539.296" stroke="#F4F6F8" stroke-width="3.89559" stroke-miterlimit="10"/>
<path d="M719.06 541.012H539.296" stroke="#F4F6F8" stroke-width="4.15597" stroke-miterlimit="10"/>
<path d="M719.06 526.573H539.296" stroke="#F4F6F8" stroke-width="4.41636" stroke-miterlimit="10"/>
<path d="M719.06 512.14H539.296" stroke="#F4F6F8" stroke-width="4.67675" stroke-miterlimit="10"/>
<path d="M719.06 497.706H539.296" stroke="#F4F6F8" stroke-width="4.93713" stroke-miterlimit="10"/>
<path d="M719.06 483.267H539.296" stroke="#F4F6F8" stroke-width="5.19752" stroke-miterlimit="10"/>
<path d="M719.06 468.834H539.296" stroke="#F4F6F8" stroke-width="5.45791" stroke-miterlimit="10"/>
<path d="M719.06 454.395H539.296" stroke="#F4F6F8" stroke-width="5.71829" stroke-miterlimit="10"/>
<path d="M719.06 439.961H539.296" stroke="#F4F6F8" stroke-width="5.97868" stroke-miterlimit="10"/>
<path d="M719.06 425.528H539.296" stroke="#F4F6F8" stroke-width="6.23907" stroke-miterlimit="10"/>
<path d="M719.06 411.089H539.296" stroke="#F4F6F8" stroke-width="6.49945" stroke-miterlimit="10"/>
<path d="M719.06 396.655H539.296" stroke="#F4F6F8" stroke-width="6.75984" stroke-miterlimit="10"/>
<path d="M719.06 382.217H539.296" stroke="#F4F6F8" stroke-width="7.02023" stroke-miterlimit="10"/>
<path d="M719.06 367.783H539.296" stroke="#F4F6F8" stroke-width="7.27551" stroke-miterlimit="10"/>
<path d="M719.06 353.35H539.296" stroke="#F4F6F8" stroke-width="7.53589" stroke-miterlimit="10"/>
<path d="M719.06 338.911H539.296" stroke="#F4F6F8" stroke-width="7.79628" stroke-miterlimit="10"/>
<path d="M719.06 324.477H539.296" stroke="#F4F6F8" stroke-width="8.05667" stroke-miterlimit="10"/>
<path d="M719.06 310.039H539.296" stroke="#F4F6F8" stroke-width="8.31705" stroke-miterlimit="10"/>
<path d="M719.06 295.605H539.296" stroke="#F4F6F8" stroke-width="8.57744" stroke-miterlimit="10"/>
<path d="M719.06 281.172H539.296" stroke="#F4F6F8" stroke-width="8.83782" stroke-miterlimit="10"/>
<path d="M719.06 266.733H539.296" stroke="#F4F6F8" stroke-width="9.09821" stroke-miterlimit="10"/>
<path d="M719.06 252.299H539.296" stroke="#F4F6F8" stroke-width="9.3586" stroke-miterlimit="10"/>
<path d="M719.06 237.861H539.296" stroke="#F4F6F8" stroke-width="9.61899" stroke-miterlimit="10"/>
<path d="M719.06 223.427H539.296" stroke="#F4F6F8" stroke-width="9.87937" stroke-miterlimit="10"/>
<path d="M719.06 208.993H539.296" stroke="#F4F6F8" stroke-width="10.1398" stroke-miterlimit="10"/>
<path d="M719.06 194.555H539.296" stroke="#F4F6F8" stroke-width="10.4001" stroke-miterlimit="10"/>
<path d="M719.06 180.121H539.296" stroke="#F4F6F8" stroke-width="10.6605" stroke-miterlimit="10"/>
<path d="M719.06 165.682H539.296" stroke="#F4F6F8" stroke-width="10.9209" stroke-miterlimit="10"/>
<path d="M719.06 151.249H539.296" stroke="#F4F6F8" stroke-width="11.1813" stroke-miterlimit="10"/>
<path d="M719.06 136.815H539.296" stroke="#F4F6F8" stroke-width="11.4417" stroke-miterlimit="10"/>
<path d="M719.06 122.377H539.296" stroke="#F4F6F8" stroke-width="11.7021" stroke-miterlimit="10"/>
<path d="M719.06 107.943H539.296" stroke="#F4F6F8" stroke-width="11.9625" stroke-miterlimit="10"/>
<path d="M719.06 93.5043H539.296" stroke="#F4F6F8" stroke-width="12.2229" stroke-miterlimit="10"/>
<path d="M719.06 79.0707H539.296" stroke="#F4F6F8" stroke-width="12.4832" stroke-miterlimit="10"/>
<path d="M719.06 64.6371H539.296" stroke="#F4F6F8" stroke-width="12.7436" stroke-miterlimit="10"/>
<path d="M719.06 50.1984H539.296" stroke="#F4F6F8" stroke-width="13.004" stroke-miterlimit="10"/>
<path d="M719.06 35.7649H539.296" stroke="#F4F6F8" stroke-width="13.2644" stroke-miterlimit="10"/>
<path d="M719.06 21.3262H539.296" stroke="#F4F6F8" stroke-width="13.5248" stroke-miterlimit="10"/>
<path d="M719.06 6.89258H539.296" stroke="#F4F6F8" stroke-width="13.7852" stroke-miterlimit="10"/>
<path d="M719.06 6.89258H898.829" stroke="#F4F6F8" stroke-width="0.510562" stroke-miterlimit="10"/>
<path d="M719.06 21.3262H898.829" stroke="#F4F6F8" stroke-width="0.770948" stroke-miterlimit="10"/>
<path d="M719.06 35.7649H898.829" stroke="#F4F6F8" stroke-width="1.03133" stroke-miterlimit="10"/>
<path d="M719.06 50.1984H898.829" stroke="#F4F6F8" stroke-width="1.29172" stroke-miterlimit="10"/>
<path d="M719.06 64.6371H898.829" stroke="#F4F6F8" stroke-width="1.55211" stroke-miterlimit="10"/>
<path d="M719.06 79.0707H898.829" stroke="#F4F6F8" stroke-width="1.81249" stroke-miterlimit="10"/>
<path d="M719.06 93.5043H898.829" stroke="#F4F6F8" stroke-width="2.07288" stroke-miterlimit="10"/>
<path d="M719.06 107.943H898.829" stroke="#F4F6F8" stroke-width="2.33327" stroke-miterlimit="10"/>
<path d="M719.06 122.377H898.829" stroke="#F4F6F8" stroke-width="2.59365" stroke-miterlimit="10"/>
<path d="M719.06 136.815H898.829" stroke="#F4F6F8" stroke-width="2.85404" stroke-miterlimit="10"/>
<path d="M719.06 151.249H898.829" stroke="#F4F6F8" stroke-width="3.11443" stroke-miterlimit="10"/>
<path d="M719.06 165.682H898.829" stroke="#F4F6F8" stroke-width="3.37481" stroke-miterlimit="10"/>
<path d="M719.06 180.121H898.829" stroke="#F4F6F8" stroke-width="3.6352" stroke-miterlimit="10"/>
<path d="M719.06 194.555H898.829" stroke="#F4F6F8" stroke-width="3.89559" stroke-miterlimit="10"/>
<path d="M719.06 208.993H898.829" stroke="#F4F6F8" stroke-width="4.15597" stroke-miterlimit="10"/>
<path d="M719.06 223.427H898.829" stroke="#F4F6F8" stroke-width="4.41636" stroke-miterlimit="10"/>
<path d="M719.06 237.861H898.829" stroke="#F4F6F8" stroke-width="4.67675" stroke-miterlimit="10"/>
<path d="M719.06 252.299H898.829" stroke="#F4F6F8" stroke-width="4.93713" stroke-miterlimit="10"/>
<path d="M719.06 266.733H898.829" stroke="#F4F6F8" stroke-width="5.19752" stroke-miterlimit="10"/>
<path d="M719.06 281.172H898.829" stroke="#F4F6F8" stroke-width="5.45791" stroke-miterlimit="10"/>
<path d="M719.06 295.605H898.829" stroke="#F4F6F8" stroke-width="5.71829" stroke-miterlimit="10"/>
<path d="M719.06 310.039H898.829" stroke="#F4F6F8" stroke-width="5.97868" stroke-miterlimit="10"/>
<path d="M719.06 324.477H898.829" stroke="#F4F6F8" stroke-width="6.23907" stroke-miterlimit="10"/>
<path d="M719.06 338.911H898.829" stroke="#F4F6F8" stroke-width="6.49945" stroke-miterlimit="10"/>
<path d="M719.06 353.35H898.829" stroke="#F4F6F8" stroke-width="6.75984" stroke-miterlimit="10"/>
<path d="M719.06 367.783H898.829" stroke="#F4F6F8" stroke-width="7.02023" stroke-miterlimit="10"/>
<path d="M719.06 382.217H898.829" stroke="#F4F6F8" stroke-width="7.27551" stroke-miterlimit="10"/>
<path d="M719.06 396.655H898.829" stroke="#F4F6F8" stroke-width="7.53589" stroke-miterlimit="10"/>
<path d="M719.06 411.089H898.829" stroke="#F4F6F8" stroke-width="7.79628" stroke-miterlimit="10"/>
<path d="M719.06 425.528H898.829" stroke="#F4F6F8" stroke-width="8.05667" stroke-miterlimit="10"/>
<path d="M719.06 439.961H898.829" stroke="#F4F6F8" stroke-width="8.31705" stroke-miterlimit="10"/>
<path d="M719.06 454.395H898.829" stroke="#F4F6F8" stroke-width="8.57744" stroke-miterlimit="10"/>
<path d="M719.06 468.834H898.829" stroke="#F4F6F8" stroke-width="8.83782" stroke-miterlimit="10"/>
<path d="M719.06 483.267H898.829" stroke="#F4F6F8" stroke-width="9.09821" stroke-miterlimit="10"/>
<path d="M719.06 497.706H898.829" stroke="#F4F6F8" stroke-width="9.3586" stroke-miterlimit="10"/>
<path d="M719.06 512.14H898.829" stroke="#F4F6F8" stroke-width="9.61899" stroke-miterlimit="10"/>
<path d="M719.06 526.573H898.829" stroke="#F4F6F8" stroke-width="9.87937" stroke-miterlimit="10"/>
<path d="M719.06 541.012H898.829" stroke="#F4F6F8" stroke-width="10.1398" stroke-miterlimit="10"/>
<path d="M719.06 555.445H898.829" stroke="#F4F6F8" stroke-width="10.4001" stroke-miterlimit="10"/>
<path d="M719.06 569.884H898.829" stroke="#F4F6F8" stroke-width="10.6605" stroke-miterlimit="10"/>
<path d="M719.06 584.318H898.829" stroke="#F4F6F8" stroke-width="10.9209" stroke-miterlimit="10"/>
<path d="M719.06 598.751H898.829" stroke="#F4F6F8" stroke-width="11.1813" stroke-miterlimit="10"/>
<path d="M719.06 613.19H898.829" stroke="#F4F6F8" stroke-width="11.4417" stroke-miterlimit="10"/>
<path d="M719.06 627.623H898.829" stroke="#F4F6F8" stroke-width="11.7021" stroke-miterlimit="10"/>
<path d="M719.06 642.062H898.829" stroke="#F4F6F8" stroke-width="11.9625" stroke-miterlimit="10"/>
<path d="M719.06 656.496H898.829" stroke="#F4F6F8" stroke-width="12.2229" stroke-miterlimit="10"/>
<path d="M719.06 670.929H898.829" stroke="#F4F6F8" stroke-width="12.4832" stroke-miterlimit="10"/>
<path d="M719.06 685.368H898.829" stroke="#F4F6F8" stroke-width="12.7436" stroke-miterlimit="10"/>
<path d="M719.06 699.802H898.829" stroke="#F4F6F8" stroke-width="13.004" stroke-miterlimit="10"/>
<path d="M719.06 714.24H898.829" stroke="#F4F6F8" stroke-width="13.2644" stroke-miterlimit="10"/>
<path d="M719.06 728.674H898.829" stroke="#F4F6F8" stroke-width="13.5248" stroke-miterlimit="10"/>
<path d="M719.06 743.107H898.829" stroke="#F4F6F8" stroke-width="13.7852" stroke-miterlimit="10"/>
<path d="M1078.59 743.107H898.829" stroke="#F4F6F8" stroke-width="0.510562" stroke-miterlimit="10"/>
<path d="M1078.59 728.674H898.829" stroke="#F4F6F8" stroke-width="0.770948" stroke-miterlimit="10"/>
<path d="M1078.59 714.24H898.829" stroke="#F4F6F8" stroke-width="1.03133" stroke-miterlimit="10"/>
<path d="M1078.59 699.802H898.829" stroke="#F4F6F8" stroke-width="1.29172" stroke-miterlimit="10"/>
<path d="M1078.59 685.368H898.829" stroke="#F4F6F8" stroke-width="1.55211" stroke-miterlimit="10"/>
<path d="M1078.59 670.929H898.829" stroke="#F4F6F8" stroke-width="1.81249" stroke-miterlimit="10"/>
<path d="M1078.59 656.496H898.829" stroke="#F4F6F8" stroke-width="2.07288" stroke-miterlimit="10"/>
<path d="M1078.59 642.062H898.829" stroke="#F4F6F8" stroke-width="2.33327" stroke-miterlimit="10"/>
<path d="M1078.59 627.623H898.829" stroke="#F4F6F8" stroke-width="2.59365" stroke-miterlimit="10"/>
<path d="M1078.59 613.19H898.829" stroke="#F4F6F8" stroke-width="2.85404" stroke-miterlimit="10"/>
<path d="M1078.59 598.751H898.829" stroke="#F4F6F8" stroke-width="3.11443" stroke-miterlimit="10"/>
<path d="M1078.59 584.318H898.829" stroke="#F4F6F8" stroke-width="3.37481" stroke-miterlimit="10"/>
<path d="M1078.59 569.884H898.829" stroke="#F4F6F8" stroke-width="3.6352" stroke-miterlimit="10"/>
<path d="M1078.59 555.445H898.829" stroke="#F4F6F8" stroke-width="3.89559" stroke-miterlimit="10"/>
<path d="M1078.59 541.012H898.829" stroke="#F4F6F8" stroke-width="4.15597" stroke-miterlimit="10"/>
<path d="M1078.59 526.573H898.829" stroke="#F4F6F8" stroke-width="4.41636" stroke-miterlimit="10"/>
<path d="M1078.59 512.14H898.829" stroke="#F4F6F8" stroke-width="4.67675" stroke-miterlimit="10"/>
<path d="M1078.59 497.706H898.829" stroke="#F4F6F8" stroke-width="4.93713" stroke-miterlimit="10"/>
<path d="M1078.59 483.267H898.829" stroke="#F4F6F8" stroke-width="5.19752" stroke-miterlimit="10"/>
<path d="M1078.59 468.834H898.829" stroke="#F4F6F8" stroke-width="5.45791" stroke-miterlimit="10"/>
<path d="M1078.59 454.395H898.829" stroke="#F4F6F8" stroke-width="5.71829" stroke-miterlimit="10"/>
<path d="M1078.59 439.961H898.829" stroke="#F4F6F8" stroke-width="5.97868" stroke-miterlimit="10"/>
<path d="M1078.59 425.528H898.829" stroke="#F4F6F8" stroke-width="6.23907" stroke-miterlimit="10"/>
<path d="M1078.59 411.089H898.829" stroke="#F4F6F8" stroke-width="6.49945" stroke-miterlimit="10"/>
<path d="M1078.59 396.655H898.829" stroke="#F4F6F8" stroke-width="6.75984" stroke-miterlimit="10"/>
<path d="M1078.59 382.217H898.829" stroke="#F4F6F8" stroke-width="7.02023" stroke-miterlimit="10"/>
<path d="M1078.59 367.783H898.829" stroke="#F4F6F8" stroke-width="7.27551" stroke-miterlimit="10"/>
<path d="M1078.59 353.35H898.829" stroke="#F4F6F8" stroke-width="7.53589" stroke-miterlimit="10"/>
<path d="M1078.59 338.911H898.829" stroke="#F4F6F8" stroke-width="7.79628" stroke-miterlimit="10"/>
<path d="M1078.59 324.477H898.829" stroke="#F4F6F8" stroke-width="8.05667" stroke-miterlimit="10"/>
<path d="M1078.59 310.039H898.829" stroke="#F4F6F8" stroke-width="8.31705" stroke-miterlimit="10"/>
<path d="M1078.59 295.605H898.829" stroke="#F4F6F8" stroke-width="8.57744" stroke-miterlimit="10"/>
<path d="M1078.59 281.172H898.829" stroke="#F4F6F8" stroke-width="8.83782" stroke-miterlimit="10"/>
<path d="M1078.59 266.733H898.829" stroke="#F4F6F8" stroke-width="9.09821" stroke-miterlimit="10"/>
<path d="M1078.59 252.299H898.829" stroke="#F4F6F8" stroke-width="9.3586" stroke-miterlimit="10"/>
<path d="M1078.59 237.861H898.829" stroke="#F4F6F8" stroke-width="9.61899" stroke-miterlimit="10"/>
<path d="M1078.59 223.427H898.829" stroke="#F4F6F8" stroke-width="9.87937" stroke-miterlimit="10"/>
<path d="M1078.59 208.993H898.829" stroke="#F4F6F8" stroke-width="10.1398" stroke-miterlimit="10"/>
<path d="M1078.59 194.555H898.829" stroke="#F4F6F8" stroke-width="10.4001" stroke-miterlimit="10"/>
<path d="M1078.59 180.121H898.829" stroke="#F4F6F8" stroke-width="10.6605" stroke-miterlimit="10"/>
<path d="M1078.59 165.682H898.829" stroke="#F4F6F8" stroke-width="10.9209" stroke-miterlimit="10"/>
<path d="M1078.59 151.249H898.829" stroke="#F4F6F8" stroke-width="11.1813" stroke-miterlimit="10"/>
<path d="M1078.59 136.815H898.829" stroke="#F4F6F8" stroke-width="11.4417" stroke-miterlimit="10"/>
<path d="M1078.59 122.377H898.829" stroke="#F4F6F8" stroke-width="11.7021" stroke-miterlimit="10"/>
<path d="M1078.59 107.943H898.829" stroke="#F4F6F8" stroke-width="11.9625" stroke-miterlimit="10"/>
<path d="M1078.59 93.5043H898.829" stroke="#F4F6F8" stroke-width="12.2229" stroke-miterlimit="10"/>
<path d="M1078.59 79.0707H898.829" stroke="#F4F6F8" stroke-width="12.4832" stroke-miterlimit="10"/>
<path d="M1078.59 64.6371H898.829" stroke="#F4F6F8" stroke-width="12.7436" stroke-miterlimit="10"/>
<path d="M1078.59 50.1984H898.829" stroke="#F4F6F8" stroke-width="13.004" stroke-miterlimit="10"/>
<path d="M1078.59 35.7649H898.829" stroke="#F4F6F8" stroke-width="13.2644" stroke-miterlimit="10"/>
<path d="M1078.59 21.3262H898.829" stroke="#F4F6F8" stroke-width="13.5248" stroke-miterlimit="10"/>
<path d="M1078.59 6.89258H898.829" stroke="#F4F6F8" stroke-width="13.7852" stroke-miterlimit="10"/>
<path d="M1078.59 6.89258H1258.36" stroke="#F4F6F8" stroke-width="0.510562" stroke-miterlimit="10"/>
<path d="M1078.59 21.3262H1258.36" stroke="#F4F6F8" stroke-width="0.770948" stroke-miterlimit="10"/>
<path d="M1078.59 35.7649H1258.36" stroke="#F4F6F8" stroke-width="1.03133" stroke-miterlimit="10"/>
<path d="M1078.59 50.1984H1258.36" stroke="#F4F6F8" stroke-width="1.29172" stroke-miterlimit="10"/>
<path d="M1078.59 64.6371H1258.36" stroke="#F4F6F8" stroke-width="1.55211" stroke-miterlimit="10"/>
<path d="M1078.59 79.0707H1258.36" stroke="#F4F6F8" stroke-width="1.81249" stroke-miterlimit="10"/>
<path d="M1078.59 93.5043H1258.36" stroke="#F4F6F8" stroke-width="2.07288" stroke-miterlimit="10"/>
<path d="M1078.59 107.943H1258.36" stroke="#F4F6F8" stroke-width="2.33327" stroke-miterlimit="10"/>
<path d="M1078.59 122.377H1258.36" stroke="#F4F6F8" stroke-width="2.59365" stroke-miterlimit="10"/>
<path d="M1078.59 136.815H1258.36" stroke="#F4F6F8" stroke-width="2.85404" stroke-miterlimit="10"/>
<path d="M1078.59 151.249H1258.36" stroke="#F4F6F8" stroke-width="3.11443" stroke-miterlimit="10"/>
<path d="M1078.59 165.682H1258.36" stroke="#F4F6F8" stroke-width="3.37481" stroke-miterlimit="10"/>
<path d="M1078.59 180.121H1258.36" stroke="#F4F6F8" stroke-width="3.6352" stroke-miterlimit="10"/>
<path d="M1078.59 194.555H1258.36" stroke="#F4F6F8" stroke-width="3.89559" stroke-miterlimit="10"/>
<path d="M1078.59 208.993H1258.36" stroke="#F4F6F8" stroke-width="4.15597" stroke-miterlimit="10"/>
<path d="M1078.59 223.427H1258.36" stroke="#F4F6F8" stroke-width="4.41636" stroke-miterlimit="10"/>
<path d="M1078.59 237.861H1258.36" stroke="#F4F6F8" stroke-width="4.67675" stroke-miterlimit="10"/>
<path d="M1078.59 252.299H1258.36" stroke="#F4F6F8" stroke-width="4.93713" stroke-miterlimit="10"/>
<path d="M1078.59 266.733H1258.36" stroke="#F4F6F8" stroke-width="5.19752" stroke-miterlimit="10"/>
<path d="M1078.59 281.172H1258.36" stroke="#F4F6F8" stroke-width="5.45791" stroke-miterlimit="10"/>
<path d="M1078.59 295.605H1258.36" stroke="#F4F6F8" stroke-width="5.71829" stroke-miterlimit="10"/>
<path d="M1078.59 310.039H1258.36" stroke="#F4F6F8" stroke-width="5.97868" stroke-miterlimit="10"/>
<path d="M1078.59 324.477H1258.36" stroke="#F4F6F8" stroke-width="6.23907" stroke-miterlimit="10"/>
<path d="M1078.59 338.911H1258.36" stroke="#F4F6F8" stroke-width="6.49945" stroke-miterlimit="10"/>
<path d="M1078.59 353.35H1258.36" stroke="#F4F6F8" stroke-width="6.75984" stroke-miterlimit="10"/>
<path d="M1078.59 367.783H1258.36" stroke="#F4F6F8" stroke-width="7.02023" stroke-miterlimit="10"/>
<path d="M1078.59 382.217H1258.36" stroke="#F4F6F8" stroke-width="7.27551" stroke-miterlimit="10"/>
<path d="M1078.59 396.655H1258.36" stroke="#F4F6F8" stroke-width="7.53589" stroke-miterlimit="10"/>
<path d="M1078.59 411.089H1258.36" stroke="#F4F6F8" stroke-width="7.79628" stroke-miterlimit="10"/>
<path d="M1078.59 425.528H1258.36" stroke="#F4F6F8" stroke-width="8.05667" stroke-miterlimit="10"/>
<path d="M1078.59 439.961H1258.36" stroke="#F4F6F8" stroke-width="8.31705" stroke-miterlimit="10"/>
<path d="M1078.59 454.395H1258.36" stroke="#F4F6F8" stroke-width="8.57744" stroke-miterlimit="10"/>
<path d="M1078.59 468.834H1258.36" stroke="#F4F6F8" stroke-width="8.83782" stroke-miterlimit="10"/>
<path d="M1078.59 483.267H1258.36" stroke="#F4F6F8" stroke-width="9.09821" stroke-miterlimit="10"/>
<path d="M1078.59 497.706H1258.36" stroke="#F4F6F8" stroke-width="9.3586" stroke-miterlimit="10"/>
<path d="M1078.59 512.14H1258.36" stroke="#F4F6F8" stroke-width="9.61899" stroke-miterlimit="10"/>
<path d="M1078.59 526.573H1258.36" stroke="#F4F6F8" stroke-width="9.87937" stroke-miterlimit="10"/>
<path d="M1078.59 541.012H1258.36" stroke="#F4F6F8" stroke-width="10.1398" stroke-miterlimit="10"/>
<path d="M1078.59 555.445H1258.36" stroke="#F4F6F8" stroke-width="10.4001" stroke-miterlimit="10"/>
<path d="M1078.59 569.884H1258.36" stroke="#F4F6F8" stroke-width="10.6605" stroke-miterlimit="10"/>
<path d="M1078.59 584.318H1258.36" stroke="#F4F6F8" stroke-width="10.9209" stroke-miterlimit="10"/>
<path d="M1078.59 598.751H1258.36" stroke="#F4F6F8" stroke-width="11.1813" stroke-miterlimit="10"/>
<path d="M1078.59 613.19H1258.36" stroke="#F4F6F8" stroke-width="11.4417" stroke-miterlimit="10"/>
<path d="M1078.59 627.623H1258.36" stroke="#F4F6F8" stroke-width="11.7021" stroke-miterlimit="10"/>
<path d="M1078.59 642.062H1258.36" stroke="#F4F6F8" stroke-width="11.9625" stroke-miterlimit="10"/>
<path d="M1078.59 656.496H1258.36" stroke="#F4F6F8" stroke-width="12.2229" stroke-miterlimit="10"/>
<path d="M1078.59 670.929H1258.36" stroke="#F4F6F8" stroke-width="12.4832" stroke-miterlimit="10"/>
<path d="M1078.59 685.368H1258.36" stroke="#F4F6F8" stroke-width="12.7436" stroke-miterlimit="10"/>
<path d="M1078.59 699.802H1258.36" stroke="#F4F6F8" stroke-width="13.004" stroke-miterlimit="10"/>
<path d="M1078.59 714.24H1258.36" stroke="#F4F6F8" stroke-width="13.2644" stroke-miterlimit="10"/>
<path d="M1078.59 728.674H1258.36" stroke="#F4F6F8" stroke-width="13.5248" stroke-miterlimit="10"/>
<path d="M1078.59 743.107H1258.36" stroke="#F4F6F8" stroke-width="13.7852" stroke-miterlimit="10"/>
<path d="M1438.13 743.107H1258.36" stroke="#F4F6F8" stroke-width="0.510562" stroke-miterlimit="10"/>
<path d="M1438.13 728.674H1258.36" stroke="#F4F6F8" stroke-width="0.770948" stroke-miterlimit="10"/>
<path d="M1438.13 714.24H1258.36" stroke="#F4F6F8" stroke-width="1.03133" stroke-miterlimit="10"/>
<path d="M1438.13 699.802H1258.36" stroke="#F4F6F8" stroke-width="1.29172" stroke-miterlimit="10"/>
<path d="M1438.13 685.368H1258.36" stroke="#F4F6F8" stroke-width="1.55211" stroke-miterlimit="10"/>
<path d="M1438.13 670.929H1258.36" stroke="#F4F6F8" stroke-width="1.81249" stroke-miterlimit="10"/>
<path d="M1438.13 656.496H1258.36" stroke="#F4F6F8" stroke-width="2.07288" stroke-miterlimit="10"/>
<path d="M1438.13 642.062H1258.36" stroke="#F4F6F8" stroke-width="2.33327" stroke-miterlimit="10"/>
<path d="M1438.13 627.623H1258.36" stroke="#F4F6F8" stroke-width="2.59365" stroke-miterlimit="10"/>
<path d="M1438.13 613.19H1258.36" stroke="#F4F6F8" stroke-width="2.85404" stroke-miterlimit="10"/>
<path d="M1438.13 598.751H1258.36" stroke="#F4F6F8" stroke-width="3.11443" stroke-miterlimit="10"/>
<path d="M1438.13 584.318H1258.36" stroke="#F4F6F8" stroke-width="3.37481" stroke-miterlimit="10"/>
<path d="M1438.13 569.884H1258.36" stroke="#F4F6F8" stroke-width="3.6352" stroke-miterlimit="10"/>
<path d="M1438.13 555.445H1258.36" stroke="#F4F6F8" stroke-width="3.89559" stroke-miterlimit="10"/>
<path d="M1438.13 541.012H1258.36" stroke="#F4F6F8" stroke-width="4.15597" stroke-miterlimit="10"/>
<path d="M1438.13 526.573H1258.36" stroke="#F4F6F8" stroke-width="4.41636" stroke-miterlimit="10"/>
<path d="M1438.13 512.14H1258.36" stroke="#F4F6F8" stroke-width="4.67675" stroke-miterlimit="10"/>
<path d="M1438.13 497.706H1258.36" stroke="#F4F6F8" stroke-width="4.93713" stroke-miterlimit="10"/>
<path d="M1438.13 483.267H1258.36" stroke="#F4F6F8" stroke-width="5.19752" stroke-miterlimit="10"/>
<path d="M1438.13 468.834H1258.36" stroke="#F4F6F8" stroke-width="5.45791" stroke-miterlimit="10"/>
<path d="M1438.13 454.395H1258.36" stroke="#F4F6F8" stroke-width="5.71829" stroke-miterlimit="10"/>
<path d="M1438.13 439.961H1258.36" stroke="#F4F6F8" stroke-width="5.97868" stroke-miterlimit="10"/>
<path d="M1438.13 425.528H1258.36" stroke="#F4F6F8" stroke-width="6.23907" stroke-miterlimit="10"/>
<path d="M1438.13 411.089H1258.36" stroke="#F4F6F8" stroke-width="6.49945" stroke-miterlimit="10"/>
<path d="M1438.13 396.655H1258.36" stroke="#F4F6F8" stroke-width="6.75984" stroke-miterlimit="10"/>
<path d="M1438.13 382.217H1258.36" stroke="#F4F6F8" stroke-width="7.02023" stroke-miterlimit="10"/>
<path d="M1438.13 367.783H1258.36" stroke="#F4F6F8" stroke-width="7.27551" stroke-miterlimit="10"/>
<path d="M1438.13 353.35H1258.36" stroke="#F4F6F8" stroke-width="7.53589" stroke-miterlimit="10"/>
<path d="M1438.13 338.911H1258.36" stroke="#F4F6F8" stroke-width="7.79628" stroke-miterlimit="10"/>
<path d="M1438.13 324.477H1258.36" stroke="#F4F6F8" stroke-width="8.05667" stroke-miterlimit="10"/>
<path d="M1438.13 310.039H1258.36" stroke="#F4F6F8" stroke-width="8.31705" stroke-miterlimit="10"/>
<path d="M1438.13 295.605H1258.36" stroke="#F4F6F8" stroke-width="8.57744" stroke-miterlimit="10"/>
<path d="M1438.13 281.172H1258.36" stroke="#F4F6F8" stroke-width="8.83782" stroke-miterlimit="10"/>
<path d="M1438.13 266.733H1258.36" stroke="#F4F6F8" stroke-width="9.09821" stroke-miterlimit="10"/>
<path d="M1438.13 252.299H1258.36" stroke="#F4F6F8" stroke-width="9.3586" stroke-miterlimit="10"/>
<path d="M1438.13 237.861H1258.36" stroke="#F4F6F8" stroke-width="9.61899" stroke-miterlimit="10"/>
<path d="M1438.13 223.427H1258.36" stroke="#F4F6F8" stroke-width="9.87937" stroke-miterlimit="10"/>
<path d="M1438.13 208.993H1258.36" stroke="#F4F6F8" stroke-width="10.1398" stroke-miterlimit="10"/>
<path d="M1438.13 194.555H1258.36" stroke="#F4F6F8" stroke-width="10.4001" stroke-miterlimit="10"/>
<path d="M1438.13 180.121H1258.36" stroke="#F4F6F8" stroke-width="10.6605" stroke-miterlimit="10"/>
<path d="M1438.13 165.682H1258.36" stroke="#F4F6F8" stroke-width="10.9209" stroke-miterlimit="10"/>
<path d="M1438.13 151.249H1258.36" stroke="#F4F6F8" stroke-width="11.1813" stroke-miterlimit="10"/>
<path d="M1438.13 136.815H1258.36" stroke="#F4F6F8" stroke-width="11.4417" stroke-miterlimit="10"/>
<path d="M1438.13 122.377H1258.36" stroke="#F4F6F8" stroke-width="11.7021" stroke-miterlimit="10"/>
<path d="M1438.13 107.943H1258.36" stroke="#F4F6F8" stroke-width="11.9625" stroke-miterlimit="10"/>
<path d="M1438.13 93.5043H1258.36" stroke="#F4F6F8" stroke-width="12.2229" stroke-miterlimit="10"/>
<path d="M1438.13 79.0707H1258.36" stroke="#F4F6F8" stroke-width="12.4832" stroke-miterlimit="10"/>
<path d="M1438.13 64.6371H1258.36" stroke="#F4F6F8" stroke-width="12.7436" stroke-miterlimit="10"/>
<path d="M1438.13 50.1984H1258.36" stroke="#F4F6F8" stroke-width="13.004" stroke-miterlimit="10"/>
<path d="M1438.13 35.7649H1258.36" stroke="#F4F6F8" stroke-width="13.2644" stroke-miterlimit="10"/>
<path d="M1438.13 21.3262H1258.36" stroke="#F4F6F8" stroke-width="13.5248" stroke-miterlimit="10"/>
<path d="M1438.13 6.89258H1258.36" stroke="#F4F6F8" stroke-width="13.7852" stroke-miterlimit="10"/>
</g>
<defs>
<clipPath id="clip0_772_2292">
<rect width="1438.12" height="750" fill="white"/>
</clipPath>
</defs>
</svg>
