<svg width="789" height="62" viewBox="0 0 789 62" fill="none" xmlns="http://www.w3.org/2000/svg">
<mask id="mask0_1_2509" style="mask-type:alpha" maskUnits="userSpaceOnUse" x="-64" y="-14" width="916" height="77">
<path d="M445.235 60.8843H343.543" stroke="#1D54DD" stroke-width="0.27793" stroke-miterlimit="10"/>
<path d="M445.235 54.2585H343.543" stroke="#1D54DD" stroke-width="0.605887" stroke-miterlimit="10"/>
<path d="M445.235 47.6327H343.543" stroke="#1D54DD" stroke-width="0.933845" stroke-miterlimit="10"/>
<path d="M445.235 41.0068H343.543" stroke="#1D54DD" stroke-width="1.26458" stroke-miterlimit="10"/>
<path d="M445.235 34.381H343.543" stroke="#1D54DD" stroke-width="1.59254" stroke-miterlimit="10"/>
<path d="M445.235 27.7551H343.543" stroke="#1D54DD" stroke-width="1.9205" stroke-miterlimit="10"/>
<path d="M445.235 21.1292H343.543" stroke="#1D54DD" stroke-width="2.24845" stroke-miterlimit="10"/>
<path d="M445.235 14.5034H343.543" stroke="#1D54DD" stroke-width="2.57641" stroke-miterlimit="10"/>
<path d="M445.235 7.87753H343.543" stroke="#1D54DD" stroke-width="2.90437" stroke-miterlimit="10"/>
<path d="M445.235 1.25168H343.543" stroke="#1D54DD" stroke-width="3.23511" stroke-miterlimit="10"/>
<path d="M750.307 1.25168H648.615" stroke="#1D54DD" stroke-width="0.933845" stroke-miterlimit="10"/>
<path d="M750.307 7.87753H648.615" stroke="#1D54DD" stroke-width="1.26458" stroke-miterlimit="10"/>
<path d="M750.307 14.5034H648.615" stroke="#1D54DD" stroke-width="1.59254" stroke-miterlimit="10"/>
<path d="M750.307 21.1292H648.615" stroke="#1D54DD" stroke-width="1.9205" stroke-miterlimit="10"/>
<path d="M750.307 27.7551H648.615" stroke="#1D54DD" stroke-width="2.24845" stroke-miterlimit="10"/>
<path d="M750.307 34.381H648.615" stroke="#1D54DD" stroke-width="2.57641" stroke-miterlimit="10"/>
<path d="M750.307 41.0068H648.615" stroke="#1D54DD" stroke-width="2.90437" stroke-miterlimit="10"/>
<path d="M750.307 47.6327H648.615" stroke="#1D54DD" stroke-width="3.23511" stroke-miterlimit="10"/>
<path d="M750.307 54.2585H648.615" stroke="#1D54DD" stroke-width="3.56306" stroke-miterlimit="10"/>
<path d="M750.307 60.8843H648.615" stroke="#1D54DD" stroke-width="3.89102" stroke-miterlimit="10"/>
<path d="M852 60.8843H750.307" stroke="#1D54DD" stroke-width="0.27793" stroke-miterlimit="10"/>
<path d="M852 54.2585H750.307" stroke="#1D54DD" stroke-width="0.605887" stroke-miterlimit="10"/>
<path d="M852 47.6327H750.307" stroke="#1D54DD" stroke-width="0.933845" stroke-miterlimit="10"/>
<path d="M852 41.0068H750.307" stroke="#1D54DD" stroke-width="1.26458" stroke-miterlimit="10"/>
<path d="M852 34.381H750.307" stroke="#1D54DD" stroke-width="1.59254" stroke-miterlimit="10"/>
<path d="M852 27.7551H750.307" stroke="#1D54DD" stroke-width="1.9205" stroke-miterlimit="10"/>
<path d="M852 21.1292H750.307" stroke="#1D54DD" stroke-width="2.24845" stroke-miterlimit="10"/>
<path d="M852 14.5034H750.307" stroke="#1D54DD" stroke-width="2.57641" stroke-miterlimit="10"/>
<path d="M852 7.87753H750.307" stroke="#1D54DD" stroke-width="2.90437" stroke-miterlimit="10"/>
<path d="M852 1.25168H750.307" stroke="#1D54DD" stroke-width="3.23511" stroke-miterlimit="10"/>
<path d="M648.615 60.8843H546.925" stroke="#1D54DD" stroke-width="0.27793" stroke-miterlimit="10"/>
<path d="M648.615 54.2585H546.925" stroke="#1D54DD" stroke-width="0.605887" stroke-miterlimit="10"/>
<path d="M648.615 47.6327H546.925" stroke="#1D54DD" stroke-width="0.933845" stroke-miterlimit="10"/>
<path d="M648.615 41.0068H546.925" stroke="#1D54DD" stroke-width="1.26458" stroke-miterlimit="10"/>
<path d="M648.615 34.381H546.925" stroke="#1D54DD" stroke-width="1.59254" stroke-miterlimit="10"/>
<path d="M648.615 27.7551H546.925" stroke="#1D54DD" stroke-width="1.9205" stroke-miterlimit="10"/>
<path d="M648.615 21.1292H546.925" stroke="#1D54DD" stroke-width="2.24845" stroke-miterlimit="10"/>
<path d="M648.615 14.5034H546.925" stroke="#1D54DD" stroke-width="2.57641" stroke-miterlimit="10"/>
<path d="M648.615 7.87753H546.925" stroke="#1D54DD" stroke-width="2.90437" stroke-miterlimit="10"/>
<path d="M648.615 1.25168H546.925" stroke="#1D54DD" stroke-width="3.23511" stroke-miterlimit="10"/>
<path d="M546.925 1.25168H445.235" stroke="#1D54DD" stroke-width="0.933845" stroke-miterlimit="10"/>
<path d="M546.925 7.87753H445.235" stroke="#1D54DD" stroke-width="1.26458" stroke-miterlimit="10"/>
<path d="M546.925 14.5034H445.235" stroke="#1D54DD" stroke-width="1.59254" stroke-miterlimit="10"/>
<path d="M546.925 21.1292H445.235" stroke="#1D54DD" stroke-width="1.9205" stroke-miterlimit="10"/>
<path d="M546.925 27.7551H445.235" stroke="#1D54DD" stroke-width="2.24845" stroke-miterlimit="10"/>
<path d="M546.925 34.381H445.235" stroke="#1D54DD" stroke-width="2.57641" stroke-miterlimit="10"/>
<path d="M546.925 41.0068H445.235" stroke="#1D54DD" stroke-width="2.90437" stroke-miterlimit="10"/>
<path d="M546.925 47.6327H445.235" stroke="#1D54DD" stroke-width="3.23511" stroke-miterlimit="10"/>
<path d="M546.925 54.2585H445.235" stroke="#1D54DD" stroke-width="3.56306" stroke-miterlimit="10"/>
<path d="M546.925 60.8843H445.235" stroke="#1D54DD" stroke-width="3.89102" stroke-miterlimit="10"/>
<path d="M343.542 1.25168H241.853" stroke="#1D54DD" stroke-width="0.933845" stroke-miterlimit="10"/>
<path d="M343.542 7.87753H241.853" stroke="#1D54DD" stroke-width="1.26458" stroke-miterlimit="10"/>
<path d="M343.542 14.5034H241.853" stroke="#1D54DD" stroke-width="1.59254" stroke-miterlimit="10"/>
<path d="M343.542 21.1292H241.853" stroke="#1D54DD" stroke-width="1.9205" stroke-miterlimit="10"/>
<path d="M343.542 27.7551H241.853" stroke="#1D54DD" stroke-width="2.24845" stroke-miterlimit="10"/>
<path d="M343.542 34.381H241.853" stroke="#1D54DD" stroke-width="2.57641" stroke-miterlimit="10"/>
<path d="M343.542 41.0068H241.853" stroke="#1D54DD" stroke-width="2.90437" stroke-miterlimit="10"/>
<path d="M343.542 47.6327H241.853" stroke="#1D54DD" stroke-width="3.23511" stroke-miterlimit="10"/>
<path d="M343.542 54.2585H241.853" stroke="#1D54DD" stroke-width="3.56306" stroke-miterlimit="10"/>
<path d="M343.542 60.8843H241.853" stroke="#1D54DD" stroke-width="3.89102" stroke-miterlimit="10"/>
<path d="M241.853 60.8843H140.163" stroke="#1D54DD" stroke-width="0.27793" stroke-miterlimit="10"/>
<path d="M241.853 54.2585H140.163" stroke="#1D54DD" stroke-width="0.605887" stroke-miterlimit="10"/>
<path d="M241.853 47.6327H140.163" stroke="#1D54DD" stroke-width="0.933845" stroke-miterlimit="10"/>
<path d="M241.853 41.0068H140.163" stroke="#1D54DD" stroke-width="1.26458" stroke-miterlimit="10"/>
<path d="M241.853 34.381H140.163" stroke="#1D54DD" stroke-width="1.59254" stroke-miterlimit="10"/>
<path d="M241.853 27.7551H140.163" stroke="#1D54DD" stroke-width="1.9205" stroke-miterlimit="10"/>
<path d="M241.853 21.1292H140.163" stroke="#1D54DD" stroke-width="2.24845" stroke-miterlimit="10"/>
<path d="M241.853 14.5034H140.163" stroke="#1D54DD" stroke-width="2.57641" stroke-miterlimit="10"/>
<path d="M241.853 7.87753H140.163" stroke="#1D54DD" stroke-width="2.90437" stroke-miterlimit="10"/>
<path d="M241.853 1.25168H140.163" stroke="#1D54DD" stroke-width="3.23511" stroke-miterlimit="10"/>
<path d="M140.163 1.25168H38.4702" stroke="#1D54DD" stroke-width="0.933845" stroke-miterlimit="10"/>
<path d="M140.163 7.87753H38.4702" stroke="#1D54DD" stroke-width="1.26458" stroke-miterlimit="10"/>
<path d="M140.163 14.5034H38.4702" stroke="#1D54DD" stroke-width="1.59254" stroke-miterlimit="10"/>
<path d="M140.163 21.1292H38.4702" stroke="#1D54DD" stroke-width="1.9205" stroke-miterlimit="10"/>
<path d="M140.163 27.7551H38.4702" stroke="#1D54DD" stroke-width="2.24845" stroke-miterlimit="10"/>
<path d="M140.163 34.381H38.4702" stroke="#1D54DD" stroke-width="2.57641" stroke-miterlimit="10"/>
<path d="M140.163 41.0068H38.4702" stroke="#1D54DD" stroke-width="2.90437" stroke-miterlimit="10"/>
<path d="M140.163 47.6327H38.4702" stroke="#1D54DD" stroke-width="3.23511" stroke-miterlimit="10"/>
<path d="M140.163 54.2585H38.4702" stroke="#1D54DD" stroke-width="3.56306" stroke-miterlimit="10"/>
<path d="M140.163 60.8843H38.4702" stroke="#1D54DD" stroke-width="3.89102" stroke-miterlimit="10"/>
<path d="M38.4702 60.8843H-63.2197" stroke="#1D54DD" stroke-width="0.27793" stroke-miterlimit="10"/>
<path d="M38.4702 54.2585H-63.2197" stroke="#1D54DD" stroke-width="0.605887" stroke-miterlimit="10"/>
<path d="M38.4702 47.6327H-63.2197" stroke="#1D54DD" stroke-width="0.933845" stroke-miterlimit="10"/>
<path d="M38.4702 41.0068H-63.2197" stroke="#1D54DD" stroke-width="1.26458" stroke-miterlimit="10"/>
<path d="M38.4702 34.381H-63.2197" stroke="#1D54DD" stroke-width="1.59254" stroke-miterlimit="10"/>
<path d="M38.4702 27.7551H-63.2197" stroke="#1D54DD" stroke-width="1.9205" stroke-miterlimit="10"/>
<path d="M38.4702 21.1292H-63.2197" stroke="#1D54DD" stroke-width="2.24845" stroke-miterlimit="10"/>
<path d="M38.4702 14.5034H-63.2197" stroke="#1D54DD" stroke-width="2.57641" stroke-miterlimit="10"/>
<path d="M38.4702 7.87753H-63.2197" stroke="#1D54DD" stroke-width="2.90437" stroke-miterlimit="10"/>
<path d="M38.4702 1.25168H-63.2197" stroke="#1D54DD" stroke-width="3.23511" stroke-miterlimit="10"/>
</mask>
<g mask="url(#mask0_1_2509)">
<path d="M54.1324 2.43189H64.099L54.1324 47.904H38.3099L32.301 20.4807L26.723 47.904H11.2117L0 2.43189H10.528L18.9854 39.6189H20.6335L27.1593 4.11336H37.6234L45.1692 39.6189H46.7534L54.1296 2.43189H54.1324ZM90.4468 12.7097H90.0104C87.434 12.7097 85.2967 13.324 83.593 14.5469C82.0032 15.6891 80.7831 17.3345 79.9188 19.4718V2.43189H69.9522V47.904H79.9188V28.221C79.9188 26.2283 80.4885 24.6302 81.6308 23.4239C82.7731 22.2205 84.2795 21.6174 86.1472 21.6174C88.0149 21.6174 89.3767 22.1899 90.4773 23.3294C91.5779 24.4717 92.1282 25.9781 92.1282 27.8458V47.904H102.095V28.4684C102.095 23.3183 101.097 19.4051 99.1043 16.7258C97.1115 14.0466 94.2238 12.707 90.4468 12.707V12.7097ZM140.841 21.4618C142.17 24.0993 142.834 26.9759 142.834 30.0887V33.4517H117.906C118.051 34.455 118.279 35.3805 118.604 36.2226C119.185 37.7401 120.099 38.913 121.344 39.7412C122.589 40.5722 124.21 40.9863 126.202 40.9863C128.028 40.9863 129.524 40.6334 130.688 39.9274C131.85 39.2215 132.639 38.3488 133.056 37.3121H142.214C141.717 39.5967 140.738 41.6311 139.287 43.4154C137.834 45.2025 136.005 46.5922 133.807 47.59C131.605 48.5877 129.073 49.0852 126.208 49.0852C123.343 49.0852 120.736 48.5877 118.515 47.59C116.291 46.5922 114.443 45.2553 112.97 43.5711C111.494 41.8896 110.374 39.9997 109.607 37.9013C108.837 35.8057 108.454 33.6545 108.454 31.4533V30.2082C108.454 27.9236 108.837 25.7335 109.607 23.6352C110.374 21.5396 111.486 19.658 112.94 17.9987C114.393 16.3395 116.211 15.0193 118.39 14.0438C120.569 13.0683 123.051 12.5791 125.833 12.5791C129.488 12.5791 132.57 13.399 135.082 15.0388C137.595 16.6786 139.515 18.8186 140.844 21.4534L140.841 21.4618ZM117.979 27.7847H133.367C133.223 26.8286 132.998 25.9559 132.684 25.1693C132.103 23.7158 131.241 22.6068 130.099 21.837C128.957 21.0699 127.534 20.6835 125.833 20.6835C124.132 20.6835 122.614 21.0782 121.411 21.8675C120.205 22.6569 119.293 23.8103 118.671 25.325C118.368 26.0643 118.14 26.8842 117.984 27.7847H117.979ZM160.243 17.2567C158.692 19.23 157.728 21.8314 157.347 25.0582V13.7687H149.437V47.904H159.404V30.5251C159.404 27.743 160.152 25.614 161.647 24.141C163.142 22.668 165.26 21.9287 168 21.9287H170.493V13.3323H169.184C165.279 13.3323 162.3 14.6414 160.246 17.2567H160.243ZM205.749 21.4618C207.077 24.0993 207.742 26.9759 207.742 30.0887V33.4517H182.814C182.959 34.455 183.186 35.3805 183.512 36.2226C184.092 37.7401 185.007 38.913 186.252 39.7412C187.497 40.5722 189.117 40.9863 191.11 40.9863C192.936 40.9863 194.431 40.6334 195.596 39.9274C196.758 39.2215 197.547 38.3488 197.964 37.3121H207.122C206.624 39.5967 205.646 41.6311 204.195 43.4154C202.742 45.2025 200.913 46.5922 198.714 47.59C196.513 48.5877 193.981 49.0852 191.116 49.0852C188.25 49.0852 185.643 48.5877 183.423 47.59C181.199 46.5922 179.351 45.2553 177.878 43.5711C176.402 41.8896 175.282 39.9997 174.515 37.9013C173.745 35.8057 173.362 33.6545 173.362 31.4533V30.2082C173.362 27.9236 173.745 25.7335 174.515 23.6352C175.282 21.5396 176.394 19.658 177.847 17.9987C179.301 16.3395 181.119 15.0193 183.298 14.0438C185.477 13.0683 187.958 12.5791 190.741 12.5791C194.395 12.5791 197.478 13.399 199.99 15.0388C202.503 16.6786 204.423 18.8186 205.752 21.4534L205.749 21.4618ZM182.886 27.7847H198.275C198.131 26.8286 197.906 25.9559 197.592 25.1693C197.011 23.7158 196.149 22.6068 195.007 21.837C193.865 21.0699 192.441 20.6835 190.741 20.6835C189.04 20.6835 187.522 21.0782 186.319 21.8675C185.112 22.6569 184.201 23.8103 183.578 25.325C183.275 26.0643 183.047 26.8842 182.892 27.7847H182.886ZM268.008 15.9171C269.025 18.5963 269.534 21.4089 269.534 24.3578V25.728C269.534 28.4684 269.025 31.1782 268.008 33.8574C266.991 36.5367 265.443 38.9463 263.366 41.0836C261.29 43.2237 258.714 44.9357 255.643 46.2225C252.569 47.5094 248.978 48.1541 244.867 48.1541H227.986V2.05946H244.867C248.978 2.05946 252.569 2.66257 255.643 3.86601C258.717 5.07222 261.29 6.71201 263.366 8.78815C265.443 10.8643 266.988 13.2434 268.008 15.9198V15.9171ZM259.192 25.0443C259.192 22.9264 258.881 21.0365 258.258 19.3745C257.636 17.7153 256.721 16.3006 255.518 15.1388C254.311 13.9771 252.861 13.0933 251.157 12.4902C249.453 11.8898 247.544 11.5869 245.426 11.5869H238.2V38.6212H245.426C247.544 38.6212 249.453 38.2988 251.157 37.6567C252.858 37.0147 254.311 36.1003 255.518 34.9163C256.721 33.7324 257.636 32.301 258.258 30.6195C258.881 28.9381 259.192 27.0787 259.192 25.0443ZM302.735 19.2189C303.98 21.2339 304.603 23.8186 304.603 26.9731V47.904H296.693V41.3393C296.421 42.2092 296.082 43.0097 295.665 43.7295C294.731 45.3498 293.441 46.595 291.801 47.4677C290.162 48.3404 288.158 48.7767 285.79 48.7767C283.422 48.7767 281.19 48.3404 279.342 47.4677C277.494 46.595 276.051 45.3387 275.012 43.6989C273.972 42.0591 273.455 40.097 273.455 37.8124C273.455 35.3193 274.097 33.2766 275.387 31.6757C276.674 30.0776 278.48 28.8936 280.807 28.1237C283.133 27.3566 285.809 26.9703 288.842 26.9703H295.009V26.8453C295.009 25.0999 294.592 23.7936 293.764 22.9209C292.933 22.0482 291.604 21.6118 289.778 21.6118C288.864 21.6118 287.66 21.6341 286.165 21.673C284.67 21.7147 283.133 21.7758 281.554 21.8592C279.976 21.9426 278.544 22.026 277.257 22.1093V13.6992C278.213 13.6158 279.334 13.5324 280.62 13.449C281.907 13.3657 283.236 13.3045 284.606 13.2628C285.976 13.2211 287.263 13.2017 288.469 13.2017C291.957 13.2017 294.895 13.6992 297.282 14.6969C299.67 15.6947 301.487 17.1983 302.732 19.2133L302.735 19.2189ZM294.014 39.2465C294.595 38.2904 294.928 36.9619 295.012 35.261V32.5206H288.783C287.038 32.5206 285.701 32.9458 284.764 33.7963C283.83 34.6468 283.364 35.8002 283.364 37.2537C283.364 38.6239 283.83 39.7356 284.764 40.5861C285.698 41.4366 287.038 41.8618 288.783 41.8618C289.903 41.8618 290.912 41.6645 291.804 41.2698C292.696 40.8752 293.433 40.1998 294.017 39.2465H294.014ZM323.416 4.54971H314.133V13.7687H308.964V21.056H314.133V34.5745C314.133 38.0208 314.62 40.7529 315.598 42.7651C316.573 44.7801 318.121 46.2114 320.239 47.0619C322.357 47.9124 325.139 48.3376 328.586 48.3376H333.383V39.9274H328.338C326.76 39.9274 325.545 39.5022 324.694 38.6517C323.844 37.8013 323.419 36.5645 323.419 34.9441V21.0532H333.385V13.7659H323.419V4.54693L323.416 4.54971ZM366.645 19.2189C367.89 21.2339 368.513 23.8186 368.513 26.9731V47.904H360.603V41.3393C360.331 42.2092 359.992 43.0097 359.575 43.7295C358.641 45.3498 357.351 46.595 355.711 47.4677C354.072 48.3404 352.068 48.7767 349.7 48.7767C347.332 48.7767 345.1 48.3404 343.252 47.4677C341.404 46.595 339.961 45.3387 338.922 43.6989C337.882 42.0591 337.365 40.097 337.365 37.8124C337.365 35.3193 338.007 33.2766 339.297 31.6757C340.584 30.0776 342.39 28.8936 344.717 28.1237C347.043 27.3566 349.719 26.9703 352.752 26.9703H358.919V26.8453C358.919 25.0999 358.502 23.7936 357.674 22.9209C356.843 22.0482 355.514 21.6118 353.688 21.6118C352.774 21.6118 351.57 21.6341 350.075 21.673C348.58 21.7147 347.043 21.7758 345.464 21.8592C343.886 21.9426 342.454 22.026 341.167 22.1093V13.6992C342.124 13.6158 343.244 13.5324 344.53 13.449C345.817 13.3657 347.146 13.3045 348.516 13.2628C349.886 13.2211 351.173 13.2017 352.379 13.2017C355.867 13.2017 358.805 13.6992 361.192 14.6969C363.58 15.6947 365.397 17.1983 366.642 19.2133L366.645 19.2189ZM357.924 39.2465C358.505 38.2904 358.838 36.9619 358.922 35.261V32.5206H352.693C350.948 32.5206 349.611 32.9458 348.674 33.7963C347.74 34.6468 347.274 35.8002 347.274 37.2537C347.274 38.6239 347.74 39.7356 348.674 40.5861C349.608 41.4366 350.948 41.8618 352.693 41.8618C353.813 41.8618 354.822 41.6645 355.714 41.2698C356.606 40.8752 357.343 40.1998 357.927 39.2465H357.924ZM399.597 2.43189H390.628V47.904H400.845V29.5912H417.165V21.1199H400.845V10.9032H417.912V2.43189H399.599H399.597ZM430.058 10.4057C431.925 10.4057 433.307 9.91932 434.199 8.94101C435.091 7.96547 435.539 6.72868 435.539 5.23342C435.539 3.73816 435.091 2.44022 434.199 1.46469C433.307 0.489156 431.925 0 430.058 0C428.19 0 426.809 0.489156 425.917 1.46469C425.024 2.44022 424.577 3.69647 424.577 5.23342C424.577 6.77037 425.022 7.96547 425.917 8.94101C426.809 9.91654 428.19 10.4057 430.058 10.4057ZM421.648 13.7687V21.1199H426.195V47.9068H436.161V13.7714H421.648V13.7687ZM465.252 12.7097H464.816C462.2 12.7097 459.977 13.2906 458.151 14.4551C456.322 15.6197 454.963 17.3623 454.071 19.6886C453.754 20.514 453.496 21.4145 453.293 22.3845V13.7714H445.383V47.9068H455.349V28.0348C455.349 26.1254 455.919 24.5773 457.061 23.3934C458.204 22.2094 459.71 21.6174 461.578 21.6174C463.445 21.6174 464.857 22.1983 465.939 23.3628C467.017 24.5273 467.559 26.0198 467.559 27.8486V47.9068H477.525V28.41C477.525 23.1377 476.475 19.2022 474.379 16.6063C472.281 14.0104 469.24 12.7125 465.255 12.7125L465.252 12.7097ZM510.724 2.43189H520.752V47.904H512.842V40.6361C512.642 41.1225 512.431 41.5978 512.189 42.048C510.963 44.3326 509.312 46.0669 507.236 47.2481C505.16 48.4321 502.773 49.0241 500.074 49.0241C497.664 49.0241 495.474 48.5877 493.501 47.715C491.528 46.8423 489.815 45.6278 488.362 44.0714C486.908 42.5149 485.797 40.6778 485.03 38.56C484.26 36.4422 483.876 34.1576 483.876 31.709V30.2777C483.876 27.8291 484.24 25.5445 484.966 23.4267C485.691 21.3089 486.75 19.4495 488.142 17.8514C489.532 16.2533 491.205 15.0082 493.156 14.1133C495.107 13.2211 497.289 12.7737 499.696 12.7737C502.436 12.7737 504.804 13.3657 506.797 14.5496C508.381 15.4918 509.687 16.7925 510.721 18.4434V2.43189H510.724ZM510.971 29.5301C510.971 27.7041 510.577 26.1671 509.788 24.9192C508.998 23.6741 507.959 22.718 506.672 22.0537C505.385 21.3895 503.993 21.056 502.497 21.056C500.835 21.056 499.351 21.4812 498.045 22.3317C496.736 23.1821 495.71 24.3467 494.963 25.8197C494.215 27.2955 493.843 29.0076 493.843 30.9586C493.843 32.9097 494.215 34.6745 494.963 36.1281C495.71 37.5817 496.747 38.7045 498.078 39.4911C499.407 40.2804 500.902 40.6751 502.564 40.6751C504.101 40.6751 505.502 40.3332 506.769 39.6467C508.037 38.9602 509.054 37.9541 509.821 36.6256C510.588 35.2971 510.974 33.699 510.974 31.8285V29.5245L510.971 29.5301ZM554.451 30.2777C552.125 28.41 548.865 27.2483 544.671 26.7897L541.991 26.5395C540.204 26.3311 538.917 25.9781 538.128 25.4806C537.339 24.9831 536.944 24.2549 536.944 23.3016C536.944 22.3484 537.4 21.5173 538.314 20.9337C539.229 20.3528 540.452 20.061 541.988 20.061C543.94 20.061 545.415 20.4445 546.41 21.2144C547.408 21.9843 547.989 22.9264 548.156 24.0493H557.002C556.877 20.3945 555.465 17.6013 552.767 15.6697C550.068 13.7381 546.516 12.7737 542.114 12.7737C539.373 12.7737 536.933 13.1906 534.796 14.0188C532.656 14.8498 530.985 16.0755 529.782 17.693C528.576 19.3134 527.975 21.3283 527.975 23.7352C527.975 26.6424 529.004 29.0298 531.057 30.8975C533.114 32.7652 536.196 33.9075 540.307 34.3244L542.986 34.5745C545.229 34.8246 546.786 35.2499 547.658 35.8502C548.531 36.4533 548.967 37.251 548.967 38.2487C548.967 39.3688 548.395 40.2331 547.255 40.8335C546.113 41.4366 544.671 41.7367 542.925 41.7367C540.641 41.7367 538.928 41.3115 537.786 40.461C536.644 39.6106 535.991 38.6434 535.824 37.565H526.977C527.144 41.1781 528.598 43.9796 531.338 45.9752C534.079 47.9679 537.878 48.9657 542.739 48.9657C545.813 48.9657 548.489 48.5182 550.774 47.6261C553.058 46.7339 554.823 45.4471 556.068 43.7629C557.314 42.0814 557.936 40.097 557.936 37.8152C557.936 34.6606 556.772 32.1454 554.448 30.2777H554.451ZM606.932 37.2537C604.753 38.7907 602.083 39.5578 598.928 39.5578C596.852 39.5578 595.004 39.2159 593.383 38.5294C591.763 37.8429 590.404 36.848 589.303 35.5389C588.203 34.2299 587.372 32.6957 586.81 30.928C586.249 29.1632 585.968 27.2205 585.968 25.1026C585.968 22.9848 586.249 20.9809 586.81 19.2161C587.372 17.4512 588.18 15.9254 589.239 14.6386C590.298 13.3518 591.616 12.354 593.194 11.648C594.773 10.9421 596.58 10.5891 598.614 10.5891C600.648 10.5891 602.485 10.9421 604.125 11.648C605.765 12.354 607.105 13.3518 608.144 14.6386C609.181 15.9254 609.845 17.4846 610.137 19.3106H620.415C620.081 15.6558 618.972 12.4679 617.082 9.74978C615.193 7.03163 612.669 4.90268 609.514 3.36573C606.357 1.82878 602.725 1.06169 598.614 1.06169C594.503 1.06169 591.252 1.73706 588.367 3.08502C585.479 4.43576 583.092 6.23119 581.204 8.47409C579.314 10.717 577.914 13.2183 576.999 15.981C576.085 18.7436 575.629 21.5368 575.629 24.3606V25.7308C575.629 28.3072 576.074 30.9531 576.969 33.674C577.861 36.3949 579.242 38.9269 581.11 41.2726C582.978 43.6183 585.387 45.5083 588.336 46.9424C591.285 48.3737 594.815 49.0908 598.925 49.0908C603.286 49.0908 607.055 48.2709 610.231 46.6311C613.408 44.9913 615.921 42.7901 617.769 40.0275C619.617 37.2676 620.729 34.2243 621.101 30.903H610.885C610.426 33.6017 609.109 35.7196 606.93 37.2565L606.932 37.2537ZM623.719 2.43189V9.78314H627.769V47.9068H637.797V2.43189H623.719ZM673.613 19.2189C674.858 21.2339 675.481 23.8186 675.481 26.9731V47.904H667.571V41.3393C667.299 42.2092 666.96 43.0097 666.543 43.7295C665.609 45.3498 664.319 46.595 662.68 47.4677C661.04 48.3404 659.036 48.7767 656.668 48.7767C654.3 48.7767 652.068 48.3404 650.22 47.4677C648.372 46.595 646.929 45.3387 645.89 43.6989C644.85 42.0591 644.333 40.097 644.333 37.8124C644.333 35.3193 644.975 33.2766 646.265 31.6757C647.552 30.0776 649.358 28.8936 651.685 28.1237C654.011 27.3566 656.687 26.9703 659.72 26.9703H665.887V26.8453C665.887 25.0999 665.47 23.7936 664.642 22.9209C663.811 22.0482 662.482 21.6118 660.656 21.6118C659.742 21.6118 658.538 21.6341 657.043 21.673C655.548 21.7147 654.011 21.7758 652.432 21.8592C650.854 21.9426 649.422 22.026 648.135 22.1093V13.6992C649.092 13.6158 650.212 13.5324 651.498 13.449C652.785 13.3657 654.114 13.3045 655.484 13.2628C656.854 13.2211 658.141 13.2017 659.347 13.2017C662.835 13.2017 665.773 13.6992 668.16 14.6969C670.548 15.6947 672.365 17.1983 673.611 19.2133L673.613 19.2189ZM664.892 39.2465C665.473 38.2904 665.806 36.9619 665.89 35.261V32.5206H659.661C657.916 32.5206 656.579 32.9458 655.642 33.7963C654.709 34.6468 654.242 35.8002 654.242 37.2537C654.242 38.6239 654.709 39.7356 655.642 40.5861C656.576 41.4366 657.916 41.8618 659.661 41.8618C660.781 41.8618 661.79 41.6645 662.682 41.2698C663.575 40.8752 664.311 40.1998 664.895 39.2465H664.892ZM694.761 17.2567C693.21 19.23 692.246 21.8314 691.865 25.0582V13.7687H683.955V47.904H693.922V30.5251C693.922 27.743 694.669 25.614 696.165 24.141C697.66 22.668 699.778 21.9287 702.518 21.9287H705.011V13.3323H703.702C699.797 13.3323 696.818 14.6414 694.764 17.2567H694.761ZM715.659 10.4057C717.526 10.4057 718.908 9.91932 719.8 8.94101C720.692 7.96547 721.139 6.72868 721.139 5.23342C721.139 3.73816 720.692 2.44022 719.8 1.46469C718.908 0.489156 717.526 0 715.659 0C713.791 0 712.41 0.489156 711.517 1.46469C710.625 2.44022 710.178 3.69647 710.178 5.23342C710.178 6.77037 710.623 7.96547 711.517 8.94101C712.41 9.91654 713.791 10.4057 715.659 10.4057ZM707.248 13.7687V21.1199H711.795V47.9068H721.762V13.7714H707.248V13.7687ZM741.323 4.54971H732.04V13.7687H726.87V21.056H732.04V34.5745C732.04 38.0208 732.526 40.7529 733.504 42.7651C734.48 44.7801 736.028 46.2114 738.146 47.0619C740.264 47.9124 743.046 48.3376 746.492 48.3376H751.289V39.9274H746.245C744.666 39.9274 743.452 39.5022 742.601 38.6517C741.751 37.8013 741.325 36.5645 741.325 34.9441V21.0532H751.292V13.7659H741.325V4.54693L741.323 4.54971ZM778.821 13.7687L772.648 39.3716H771.403L763.807 13.7687H753.78L764.244 47.1564H770.772L770.411 48.6516C770.119 49.73 769.747 50.5833 769.291 51.2058C768.832 51.8284 768.232 52.2759 767.484 52.5454C766.737 52.815 765.822 52.9512 764.744 52.9512H757.643V61.4225H763.746C766.778 61.4225 769.28 61.0807 771.253 60.3942C773.223 59.7077 774.802 58.5765 775.986 57.0007C777.17 55.422 778.093 53.3042 778.757 50.6472L788.287 13.7714H778.818L778.821 13.7687Z" fill="#1D54DD"/>
</g>
</svg>
