<svg width="189" height="43" viewBox="0 0 189 43" fill="none" xmlns="http://www.w3.org/2000/svg">
<path d="M39.2207 27.6206L38.6008 27.861L38.3326 27.9647L37.8822 28.1393L37.8873 28.1545C36.5969 28.7263 35.4406 29.5638 34.4918 30.6087L29.1228 32.6936C27.5566 32.5469 25.9777 32.7619 24.5077 33.3337L9.3418 39.224C10.4475 39.9805 11.619 40.6333 12.8436 41.1722L25.6235 36.2106C27.0935 35.6413 28.4042 34.7329 29.4593 33.5665L34.8308 31.4817C36.2376 31.6132 37.6545 31.4488 38.993 31.0009L38.9981 31.0161L39.4484 30.8415L39.7166 30.7378L40.3365 30.4974C40.625 30.3861 40.9058 30.257 41.1816 30.1179C41.6294 29.0982 41.9938 28.0406 42.2772 26.9602C41.2322 27.0209 40.2024 27.2411 39.2182 27.6231L39.2207 27.6206Z" fill="#1D54DD"/>
<path d="M41.5309 13.7173C41.3866 13.3478 41.2323 12.986 41.0729 12.6293C40.4555 12.7431 39.8458 12.9127 39.2562 13.1404L38.6363 13.3807L38.3681 13.4845L37.9178 13.6591L37.9228 13.6742C36.6324 14.2461 35.4761 15.0835 34.5273 16.1285L19.6676 21.8999C18.1014 21.7531 16.5226 21.9682 15.0525 22.54L1.01001 27.99C1.14664 28.4201 1.29339 28.8503 1.45785 29.2753C1.66786 29.8168 1.90316 30.3405 2.15112 30.8542L16.1683 25.4117C17.6384 24.8425 18.949 23.9341 20.0041 22.7702L34.8638 16.9989C36.2706 17.1305 37.6875 16.9685 39.026 16.5182L39.031 16.5333L39.4814 16.3588L39.7496 16.255L40.3695 16.0147C40.9514 15.7895 41.5056 15.5086 42.0318 15.1822C41.88 14.6914 41.7181 14.203 41.5283 13.7173H41.5309Z" fill="#1D54DD"/>
<path d="M35.8732 36.1549L18.7161 42.8169C22.1774 43.2723 25.7955 42.8902 29.2796 41.5366C32.6371 40.2335 35.476 38.1765 37.6899 35.6362C37.0725 35.7501 36.4653 35.9246 35.8758 36.1524L35.8732 36.1549Z" fill="#1D54DD"/>
<path d="M24.1459 0.165598C20.7251 -0.262003 17.1525 0.127645 13.7139 1.46105C9.99458 2.90578 6.90776 5.27403 4.61035 8.19892L21.6258 1.59262C22.5342 1.24092 23.3792 0.75513 24.1459 0.165598Z" fill="#1D54DD"/>
<path d="M30.7091 2.08601C30.2841 2.18974 29.8666 2.31878 29.4567 2.47819L28.8368 2.71855L28.5686 2.82229L28.1182 2.99687L28.1233 3.01205C26.8329 3.58387 25.6766 4.42136 24.7278 5.46633L19.1437 7.63469C17.5775 7.48794 15.9987 7.70301 14.5286 8.27483L1.63989 13.277C1.13638 14.4915 0.744207 15.749 0.470947 17.0394L15.6444 11.1466C17.1145 10.5773 18.4251 9.66896 19.4802 8.50255L25.0643 6.33418C26.4711 6.46575 27.888 6.30129 29.2265 5.85345L29.2315 5.86863L29.6819 5.69405L29.9501 5.59031L30.57 5.34994C31.62 4.94258 32.5891 4.35811 33.4417 3.63448C32.5688 3.05001 31.6529 2.53385 30.7066 2.08348L30.7091 2.08601Z" fill="#1D54DD"/>
<path d="M38.9373 8.93015C38.4161 8.20651 37.8519 7.5259 37.2522 6.8807C36.6298 6.99456 36.015 7.16408 35.4178 7.39686L34.798 7.63722L34.5298 7.74096L34.0794 7.91554L34.0844 7.93072C32.794 8.50255 31.6378 9.34003 30.6889 10.385L18.1418 15.2581C16.5756 15.1114 14.9968 15.3264 13.5267 15.8983L0.00290245 21.1484C-0.0148088 22.2212 0.0484457 23.3016 0.195196 24.382L14.6425 18.7725C16.1126 18.2033 17.4232 17.2949 18.4783 16.1285L31.0255 11.2554C32.4322 11.387 33.8491 11.2225 35.1876 10.7746L35.1927 10.7898L35.643 10.6152L35.9112 10.5115L36.5311 10.2711C37.3939 9.93716 38.1985 9.48172 38.9323 8.93015H38.9373Z" fill="#1D54DD"/>
<path d="M42.8794 19.3469C41.9989 19.4405 41.131 19.6455 40.3011 19.9693L39.6812 20.2097L39.413 20.3134L38.9627 20.488L38.9677 20.5032C37.6773 21.075 36.521 21.9125 35.5722 22.9575L23.2427 27.7446C21.6765 27.5978 20.0976 27.8129 18.6276 28.3847L4.03857 34.0498C4.67871 34.9404 5.3821 35.7728 6.13862 36.542L19.7434 31.259C21.2134 30.6897 22.5241 29.7814 23.5792 28.6175L35.9087 23.8304C37.3155 23.962 38.7324 23.7975 40.0709 23.3496L40.0759 23.3648L40.5263 23.1902L40.7945 23.0865L41.4144 22.8461C41.9609 22.6336 42.4847 22.3755 42.9831 22.0744C43.0084 21.1712 42.9705 20.2603 42.8769 19.3494L42.8794 19.3469Z" fill="#1D54DD"/>
<path d="M186.852 14.9343C186.956 14.8811 187.034 14.8052 187.085 14.7091C187.135 14.6129 187.161 14.5041 187.161 14.3802C187.161 14.2562 187.135 14.1448 187.085 14.0487C187.034 13.9525 186.956 13.8741 186.852 13.8185C186.746 13.7628 186.612 13.735 186.447 13.735H185.736V15.835H185.992V15.0152H186.452C186.47 15.0152 186.485 15.0102 186.503 15.0102L186.948 15.835H187.244L186.766 14.9621C186.794 14.952 186.827 14.9444 186.852 14.9317V14.9343ZM185.989 13.9601H186.437C186.551 13.9601 186.642 13.9779 186.71 14.0133C186.779 14.0487 186.829 14.0968 186.862 14.16C186.895 14.2233 186.91 14.2967 186.91 14.3802C186.91 14.4636 186.895 14.537 186.865 14.5977C186.834 14.6585 186.784 14.704 186.715 14.7369C186.647 14.7698 186.556 14.785 186.445 14.785H185.994V13.9601H185.989Z" fill="#0A1630"/>
<path d="M188.302 14.1626C188.236 13.9652 188.142 13.7856 188.021 13.6211C187.899 13.4566 187.758 13.3149 187.593 13.1935C187.429 13.072 187.247 12.9784 187.049 12.9126C186.852 12.8469 186.644 12.814 186.427 12.814C186.209 12.814 186.002 12.8469 185.804 12.9126C185.607 12.9784 185.425 13.072 185.263 13.1935C185.098 13.3149 184.957 13.4566 184.835 13.6211C184.714 13.7856 184.62 13.9677 184.554 14.1626C184.489 14.3599 184.456 14.5674 184.456 14.785C184.456 15.0026 184.489 15.2101 184.554 15.4074C184.62 15.6048 184.714 15.7844 184.835 15.9489C184.957 16.1133 185.098 16.255 185.263 16.3765C185.427 16.4979 185.607 16.5915 185.804 16.6573C186.002 16.7231 186.209 16.756 186.427 16.756C186.644 16.756 186.852 16.7231 187.049 16.6573C187.247 16.5915 187.429 16.4979 187.593 16.3765C187.758 16.255 187.899 16.1133 188.021 15.9489C188.142 15.7844 188.236 15.6022 188.302 15.4074C188.367 15.2101 188.4 15.0026 188.4 14.785C188.4 14.5674 188.367 14.3599 188.302 14.1626ZM188.076 15.334C188.018 15.5086 187.935 15.6655 187.829 15.8122C187.722 15.9565 187.596 16.083 187.452 16.1892C187.307 16.2955 187.148 16.379 186.976 16.4372C186.801 16.4954 186.619 16.5257 186.427 16.5257C186.235 16.5257 186.052 16.4954 185.878 16.4372C185.703 16.379 185.546 16.2955 185.4 16.1892C185.255 16.083 185.129 15.9565 185.023 15.8122C184.916 15.668 184.833 15.5086 184.775 15.334C184.716 15.1594 184.689 14.9773 184.689 14.7875C184.689 14.5977 184.716 14.413 184.775 14.2385C184.833 14.0639 184.914 13.907 185.023 13.7603C185.129 13.616 185.255 13.4895 185.4 13.3833C185.544 13.277 185.703 13.1935 185.878 13.1353C186.05 13.0771 186.235 13.0493 186.427 13.0493C186.619 13.0493 186.801 13.0796 186.976 13.1353C187.15 13.1935 187.307 13.2745 187.452 13.3833C187.596 13.4895 187.722 13.616 187.829 13.7603C187.935 13.9045 188.018 14.0639 188.076 14.2385C188.135 14.413 188.163 14.5952 188.163 14.7875C188.163 14.9798 188.132 15.162 188.076 15.334Z" fill="#0A1630"/>
<path d="M66.4683 14.9621C65.77 14.1701 64.935 13.5553 63.966 13.1176C62.9969 12.6799 61.9064 12.4597 60.6995 12.4597C59.3863 12.4597 58.1972 12.7457 57.1345 13.32C56.0718 13.8944 55.2217 14.7647 54.5866 15.9312C54.3715 16.3259 54.1919 16.756 54.0401 17.214V12.9936H50.6016V36.2257H54.9484V27.7142C55.5531 28.6048 56.3097 29.2804 57.2155 29.7383C58.268 30.2697 59.4294 30.5354 60.702 30.5354C61.9747 30.5354 63.0045 30.3102 63.9862 29.8623C64.9654 29.4145 65.8054 28.7895 66.5037 27.9875C67.2021 27.1854 67.7334 26.2568 68.0978 25.2043C68.4621 24.1517 68.6443 23.0106 68.6443 21.7809V21.1256C68.6443 19.9162 68.457 18.7852 68.0826 17.7326C67.7081 16.6801 67.1692 15.7566 66.4734 14.9646L66.4683 14.9621ZM63.7028 24.263C63.3056 25.0879 62.7591 25.728 62.0608 26.186C61.3624 26.6439 60.5452 26.8742 59.6065 26.8742C58.7943 26.8742 58.0226 26.687 57.2914 26.3125C56.5627 25.938 55.9681 25.4067 55.5101 24.7185C55.0521 24.0303 54.8219 23.1978 54.8219 22.2161V20.9662C54.8219 19.944 55.0446 19.0686 55.4949 18.3399C55.9428 17.6112 56.5272 17.0571 57.2458 16.6826C57.9644 16.3081 58.7513 16.1209 59.6065 16.1209C60.5452 16.1209 61.3624 16.3461 62.0608 16.7939C62.7591 17.2418 63.3056 17.8617 63.7028 18.6536C64.0975 19.4456 64.2974 20.3843 64.2974 21.4672C64.2974 22.5501 64.1001 23.4433 63.7028 24.2656V24.263Z" fill="#0A1630"/>
<path d="M87.4183 15.038C86.6162 14.2157 85.6395 13.568 84.4959 13.0999C83.3497 12.6318 82.0568 12.3965 80.6197 12.3965C79.1825 12.3965 77.8896 12.6318 76.7434 13.0999C75.5972 13.568 74.6231 14.2157 73.8211 15.038C73.019 15.8628 72.4042 16.799 71.9766 17.8516C71.549 18.9041 71.3364 20.0149 71.3364 21.1813V21.8391C71.3364 22.9651 71.5388 24.048 71.9462 25.0904C72.3536 26.1328 72.9507 27.0665 73.7452 27.8888C74.5371 28.7136 75.5062 29.3639 76.6523 29.8421C77.7985 30.3203 79.1218 30.5607 80.6247 30.5607C82.1276 30.5607 83.418 30.3203 84.5642 29.8421C85.7104 29.3639 86.6794 28.7111 87.4714 27.8888C88.2633 27.0665 88.863 26.1328 89.2704 25.0904C89.6777 24.048 89.8801 22.9651 89.8801 21.8391V21.1813C89.8801 20.0149 89.6701 18.9041 89.2552 17.8516C88.8377 16.799 88.2279 15.8603 87.4258 15.038H87.4183ZM84.964 24.2327C84.5895 25.0347 84.0354 25.6724 83.3067 26.1404C82.578 26.6085 81.6798 26.8438 80.6171 26.8438C79.5545 26.8438 78.6562 26.6085 77.9275 26.1404C77.1989 25.6724 76.6397 25.0347 76.2551 24.2327C75.868 23.4306 75.6757 22.5172 75.6757 21.4976C75.6757 20.4779 75.873 19.5341 76.2703 18.7295C76.665 17.9275 77.2343 17.2924 77.9756 16.8218C78.7144 16.3537 79.5949 16.1184 80.6171 16.1184C81.6393 16.1184 82.5198 16.3537 83.2586 16.8218C83.9975 17.2899 84.5617 17.9275 84.9463 18.7295C85.3309 19.5316 85.5257 20.4551 85.5257 21.4976C85.5257 22.54 85.3384 23.4306 84.964 24.2327Z" fill="#0A1630"/>
<path d="M105.555 21.3407C104.419 20.445 102.85 19.8909 100.849 19.6834L99.3481 19.5265C98.4297 19.4228 97.7693 19.2254 97.3619 18.9319C96.9546 18.641 96.7522 18.2235 96.7522 17.682C96.7522 17.1406 97.0027 16.6598 97.5036 16.3056C98.0046 15.9514 98.7131 15.7743 99.629 15.7743C100.651 15.7743 101.43 15.9818 101.974 16.3992C102.516 16.8167 102.807 17.3177 102.85 17.8996H106.759C106.696 16.1285 106.018 14.7824 104.727 13.8665C103.434 12.9506 101.747 12.4901 99.6619 12.4901C98.3285 12.4901 97.1443 12.6925 96.112 13.0999C95.0797 13.5072 94.2726 14.1069 93.6881 14.8988C93.1036 15.6908 92.8127 16.67 92.8127 17.8389C92.8127 19.2988 93.3238 20.4652 94.346 21.3407C95.3682 22.2161 96.8255 22.7576 98.7232 22.9676L100.224 23.1245C101.35 23.2282 102.147 23.4483 102.615 23.7798C103.083 24.1138 103.318 24.5616 103.318 25.1233C103.318 25.7685 103.009 26.2796 102.394 26.6566C101.78 27.0311 100.95 27.2183 99.9098 27.2183C98.6599 27.2183 97.7415 26.9779 97.157 26.4997C96.5725 26.0215 96.2512 25.4876 96.1879 24.9057H92.2788C92.3421 26.6566 93.0328 28.0279 94.3586 29.0173C95.6819 30.0065 97.5112 30.5025 99.8466 30.5025C101.347 30.5025 102.65 30.2722 103.756 29.8143C104.861 29.3563 105.719 28.7162 106.336 27.8913C106.951 27.069 107.26 26.0924 107.26 24.969C107.26 23.4483 106.691 22.2389 105.557 21.3407H105.555Z" fill="#0A1630"/>
<path d="M109.289 12.9911V16.2424H111.667V29.9686H116.012V16.2424V12.9911H111.667H109.289Z" fill="#0A1630"/>
<path d="M113.261 10.9593C114.117 10.9593 114.742 10.7367 115.139 10.2863C115.533 9.83847 115.733 9.26918 115.733 8.58097C115.733 7.89276 115.536 7.33107 115.139 6.89334C114.742 6.45562 114.117 6.2355 113.261 6.2355C112.406 6.2355 111.776 6.45562 111.369 6.89334C110.961 7.33107 110.759 7.89276 110.759 8.58097C110.759 9.26918 110.961 9.83594 111.369 10.2863C111.776 10.7342 112.406 10.9593 113.261 10.9593Z" fill="#0A1630"/>
<path d="M119.109 7.14383V10.3951H121.234V29.9686H125.581V10.3951V7.14383H121.234H119.109Z" fill="#0A1630"/>
<path d="M142.574 13.6009C141.334 12.7988 139.796 12.3965 137.961 12.3965C136.564 12.3965 135.335 12.6419 134.272 13.1302C133.209 13.6211 132.319 14.2764 131.598 15.1013C130.879 15.9261 130.335 16.8623 129.971 17.9148C129.606 18.9674 129.424 20.0579 129.424 21.1813V21.7759C129.424 22.8613 129.606 23.924 129.971 24.9664C130.335 26.0089 130.877 26.9526 131.598 27.7952C132.316 28.6403 133.225 29.3108 134.318 29.8117C135.413 30.3127 136.688 30.5632 138.148 30.5632C139.608 30.5632 140.79 30.3228 141.885 29.8446C142.981 29.3664 143.882 28.6883 144.59 27.8129C145.299 26.9374 145.779 25.9153 146.027 24.7488H142.025C141.837 25.3738 141.41 25.9001 140.742 26.3277C140.074 26.7553 139.211 26.9678 138.146 26.9678C137.081 26.9678 136.208 26.7325 135.52 26.2644C134.831 25.7963 134.32 25.1486 133.986 24.3263C133.766 23.7798 133.619 23.1801 133.543 22.5273H146.306V20.9637C146.306 19.4633 145.992 18.0616 145.367 16.7585C144.742 15.4555 143.808 14.4029 142.569 13.6009H142.574ZM135.525 16.6497C136.193 16.212 137.005 15.9919 137.964 15.9919C138.923 15.9919 139.72 16.1994 140.355 16.6168C140.99 17.0343 141.465 17.6289 141.777 18.3981C141.954 18.8358 142.08 19.3292 142.156 19.8681H133.624C133.71 19.3874 133.837 18.9421 134.006 18.5398C134.351 17.7175 134.857 17.0849 135.522 16.6472L135.525 16.6497Z" fill="#0A1630"/>
<path d="M159.382 12.4597H159.194C157.838 12.4597 156.71 12.7507 155.801 13.3352C154.896 13.9197 154.212 14.79 153.754 15.9463C153.603 16.3259 153.481 16.7408 153.38 17.1836V12.9936H149.941V29.9711H154.288V19.9972C154.288 18.8915 154.617 18.011 155.272 17.3556C155.93 16.6978 156.788 16.3714 157.853 16.3714C158.918 16.3714 159.713 16.6953 160.308 17.3405C160.902 17.9857 161.198 18.8307 161.198 19.8732V29.9737H165.545V20.2502C165.545 17.6669 165.024 15.7211 163.981 14.4181C162.939 13.1151 161.406 12.4648 159.384 12.4648L159.382 12.4597Z" fill="#0A1630"/>
<path d="M182.019 16.4296V12.9911H169.075V16.336H177.594L169.105 26.5301V29.9686H182.363V26.6237H173.53L182.019 16.4296Z" fill="#0A1630"/>
</svg>
